<svg width="412" height="372" fill="none" xmlns="http://www.w3.org/2000/svg"><path opacity=".3" fill-rule="evenodd" clip-rule="evenodd" d="M394.658 110.033c9.135 0 16.541-7.406 16.541-16.542v-76.95C411.199 7.406 403.793 0 394.658 0H102.922c-9.136 0-16.541 7.406-16.541 16.541v71.764c0 9.135-7.406 16.541-16.542 16.541H16.541C7.406 104.846 0 112.252 0 121.387v181.202c0 9.135 7.406 16.541 16.541 16.541h53.653c9.136 0 16.541 7.405 16.541 16.541v76.431c0 9.136 7.406 16.542 16.542 16.542h121.461c9.135 0 16.541 7.405 16.541 16.541v28.268c0 9.135 7.406 16.541 16.541 16.541h33.918c9.135 0 16.541-7.406 16.541-16.541v-33.918c0-9.135-7.406-16.541-16.541-16.541h-22.861c-9.136 0-16.541-7.406-16.541-16.541v-71.177c0-9.135-7.406-16.541-16.542-16.541H109.773c-9.135 0-16.54-7.406-16.54-16.541v-175.62c0-9.136 7.405-16.541 16.54-16.541h284.885z" fill="#000" fill-opacity=".15"/></svg>