<svg width="1440" height="929" fill="none" xmlns="http://www.w3.org/2000/svg"><path opacity=".2" fill-rule="evenodd" clip-rule="evenodd" d="M1736.44 307.877c0-8.769 7.11-15.877 15.88-15.877h73.8c8.77 0 15.88 7.108 15.88 15.877v278.639c0 8.769-7.11 15.877-15.88 15.877h-68.88c-8.77 0-15.88 7.109-15.88 15.878v49.852c0 8.768-7.1 15.877-15.87 15.877h-173.93c-8.77 0-15.88-7.108-15.88-15.877v-49.924c0-8.769-7.11-15.877-15.88-15.877h-73.14c-8.77 0-15.87-7.109-15.87-15.878V407.368c0-8.769-7.11-15.878-15.88-15.878H1329c-8.77 0-15.88-7.108-15.88-15.877v-33.516c0-8.769 7.11-15.877 15.88-15.877h91.11c8.77 0 15.88 7.108 15.88 15.877v33.353c0 8.769 7.11 15.877 15.87 15.877h68.49c8.77 0 15.88 7.109 15.88 15.877v171.428c0 8.769 7.1 15.878 15.87 15.878h168.46c8.77 0 15.88-7.109 15.88-15.878V307.877z" fill="#000" fill-opacity=".15"/><g opacity=".2"><mask id="path-2-inside-1_3054_812" fill="#fff"><path fill-rule="evenodd" clip-rule="evenodd" d="M617.331 500.123c0 8.768-7.108 15.877-15.877 15.877H527.65c-8.769 0-15.877-7.108-15.877-15.877V221.484c0-8.769 7.108-15.877 15.877-15.877h68.882c8.768 0 15.877-7.109 15.877-15.878v-49.852c0-8.769 7.109-15.878 15.877-15.878h173.929c8.769 0 15.877 7.109 15.877 15.878V189.8c0 8.769 7.109 15.877 15.877 15.877h73.14c8.769 0 15.878 7.109 15.878 15.878v179.076c0 8.769 7.108 15.878 15.877 15.878h85.906c8.77 0 15.88 7.108 15.88 15.877v33.516c0 8.769-7.11 15.877-15.88 15.877h-91.106c-8.769 0-15.878-7.108-15.878-15.877v-33.353c0-8.769-7.108-15.877-15.877-15.877h-68.484c-8.769 0-15.878-7.109-15.878-15.877V229.367c0-8.769-7.108-15.878-15.877-15.878H633.209c-8.769 0-15.878 7.109-15.878 15.878v270.756z"/></mask><path d="M933.664 481.779v-1.4 1.4zm91.106 0v-1.4 1.4zm-85.906-65.27v-1.4 1.4zm-31.755-210.832v1.4-1.4zM818.092 189.8h-1.4 1.4zm15.877 15.877v-1.4 1.4zm-31.754-81.678v1.4-1.4zm15.877 15.878h1.4-1.4zm-189.806-15.878v-1.4 1.4zM527.65 514.6h73.804v2.8H527.65v-2.8zm-14.477-293.116v278.639h-2.8V221.484h2.8zm83.359-14.477H527.65v-2.8h68.882v2.8zm17.277-67.13v49.852h-2.8v-49.852h2.8zm188.406-14.478H628.286v-2.8h173.929v2.8zm14.477 64.401v-49.923h2.8V189.8h-2.8zm90.417 17.277h-73.14v-2.8h73.14v2.8zm14.478 193.554V221.555h2.8v179.076h-2.8zm103.183 17.278h-85.906v-2.8h85.906v2.8zm14.48 47.993v-33.516h2.8v33.516h-2.8zm-105.586 14.477h91.106v2.8h-91.106v-2.8zm-14.478-47.83v33.353h-2.8v-33.353h2.8zm-85.761-17.277h68.484v2.8h-68.484v-2.8zm-14.478-185.905v171.428h-2.8V229.367h2.8zm-185.738-17.278H801.67v2.8H633.209v-2.8zm-17.278 288.034V229.367h2.8v270.756h-2.8zm17.278-285.234c-7.996 0-14.478 6.482-14.478 14.478h-2.8c0-9.542 7.736-17.278 17.278-17.278v2.8zm182.938 14.478c0-7.996-6.481-14.478-14.477-14.478v-2.8c9.542 0 17.277 7.736 17.277 17.278h-2.8zm17.278 188.705c-9.542 0-17.278-7.735-17.278-17.277h2.8c0 7.995 6.482 14.477 14.478 14.477v2.8zm82.961 14.477c0-7.995-6.481-14.477-14.477-14.477v-2.8c9.542 0 17.277 7.735 17.277 17.277h-2.8zm17.278 50.63c-9.542 0-17.278-7.735-17.278-17.277h2.8c0 7.996 6.482 14.477 14.478 14.477v2.8zm108.386-17.277c0 9.542-7.74 17.277-17.28 17.277v-2.8c8 0 14.48-6.481 14.48-14.477h2.8zm-17.28-50.793c9.54 0 17.28 7.735 17.28 17.277h-2.8c0-7.996-6.48-14.477-14.48-14.477v-2.8zm-100.383-14.478c0 7.996 6.481 14.478 14.477 14.478v2.8c-9.542 0-17.277-7.736-17.277-17.278h2.8zm-17.278-196.354c9.542 0 17.278 7.736 17.278 17.278h-2.8c0-7.996-6.482-14.478-14.478-14.478v-2.8zM819.492 189.8c0 7.996 6.482 14.477 14.477 14.477v2.8c-9.542 0-17.277-7.735-17.277-17.277h2.8zm-17.277-67.201c9.542 0 17.277 7.736 17.277 17.278h-2.8c0-7.996-6.482-14.478-14.477-14.478v-2.8zm-191.206 17.278c0-9.542 7.735-17.278 17.277-17.278v2.8c-7.995 0-14.477 6.482-14.477 14.478h-2.8zm-14.477 64.33c7.995 0 14.477-6.482 14.477-14.478h2.8c0 9.542-7.735 17.278-17.277 17.278v-2.8zm-86.159 17.277c0-9.542 7.735-17.277 17.277-17.277v2.8c-7.995 0-14.477 6.481-14.477 14.477h-2.8zM601.454 514.6c7.996 0 14.477-6.482 14.477-14.477h2.8c0 9.542-7.735 17.277-17.277 17.277v-2.8zm-73.804 2.8c-9.542 0-17.277-7.735-17.277-17.277h2.8c0 7.995 6.482 14.477 14.477 14.477v2.8z" fill="#000" fill-opacity=".15" mask="url(#path-2-inside-1_3054_812)"/></g><path opacity=".2" fill-rule="evenodd" clip-rule="evenodd" d="M392.233 573.792c0-6.512 5.279-11.792 11.792-11.792h24.654c6.513 0 11.792 5.28 11.792 11.792v40.734c0 6.512-5.279 11.791-11.792 11.791h-23.636c-6.512 0-11.791 5.279-11.791 11.792v51.102c0 6.512-5.28 11.791-11.792 11.791H70.428c-6.512 0-11.791 5.279-11.791 11.792V837.96c0 6.512 5.279 11.791 11.791 11.791h201.017c6.512 0 11.791 5.279 11.791 11.791v54.854c0 6.513-5.279 11.792-11.791 11.792H64.638c-6.513 0-11.792-5.279-11.792-11.792v-51.157c0-6.512-5.279-11.791-11.791-11.791H3.967c-6.512 0-11.791-5.279-11.791-11.792V712.487c0-6.512 5.28-11.791 11.791-11.791h37.085c6.512 0 11.791-5.28 11.791-11.792v-54.297c0-6.513 5.28-11.792 11.791-11.792h315.808c6.512 0 11.791-5.279 11.791-11.791v-37.232z" fill="#000" fill-opacity=".15"/><g opacity=".2"><mask id="path-5-inside-2_3054_812" fill="#fff"><path fill-rule="evenodd" clip-rule="evenodd" d="M880.586 557.396c0 6.512-5.279 11.791-11.791 11.791H844.14c-6.512 0-11.791-5.279-11.791-11.791v-40.734c0-6.512 5.279-11.791 11.791-11.791h23.636c6.513 0 11.792-5.28 11.792-11.792v-51.102c0-6.512 5.279-11.791 11.791-11.791h311.031c6.51 0 11.79-5.28 11.79-11.792V293.228c0-6.512-5.28-11.791-11.79-11.791h-201.02c-6.507 0-11.787-5.279-11.787-11.792v-54.854c0-6.512 5.28-11.791 11.787-11.791h206.81c6.51 0 11.79 5.279 11.79 11.791v51.158c0 6.512 5.28 11.791 11.79 11.791h37.09c6.51 0 11.79 5.279 11.79 11.791v129.17c0 6.512-5.28 11.791-11.79 11.791h-37.08c-6.51 0-11.79 5.279-11.79 11.792v54.297c0 6.512-5.28 11.791-11.8 11.791l-315.802.001c-6.513 0-11.792 5.279-11.792 11.791v37.232z"/></mask><path d="M880.586 520.164h-1.4 1.4zm339.394-23.583h1.4-1.4zm11.79-66.089v1.4-1.4zm-11.79 11.792h-1.4 1.4zm48.87-11.792v-1.4 1.4zm0-152.752v-1.4 1.4zm-48.88-11.791h1.4-1.4zm0-51.158h-1.4 1.4zm-230.387 0h-1.4 1.4zm11.787 66.646v-1.4 1.4zm-11.787-11.792h1.4-1.4zm212.807 160.541v1.4-1.4zm-311.031 0v-1.4 1.4zm-23.583 74.685v1.4-1.4zm-23.636 0v-1.4 1.4zm24.655 64.316v-1.4 1.4zm11.791-11.791h1.4-1.4zm-36.446 11.791v1.4-1.4zm0-1.4h24.655v2.8H844.14v-2.8zm-10.391-51.125v40.734h-2.8v-40.734h2.8zm34.027-10.391H844.14v-2.8h23.636v2.8zm13.192-64.294v51.102h-2.8v-51.102h2.8zm321.422-10.391H891.359v-2.8h311.031v2.8zm13.19-138.358v125.166h-2.8V293.228h2.8zm-214.21-13.191h201.02v2.8h-201.02v-2.8zm-10.387-65.246v54.854h-2.8v-54.854h2.8zM1208.18 204.4h-206.81v-2.8h206.81v2.8zm10.39 61.549v-51.158h2.8v51.158h-2.8zm50.28 13.191h-37.09v-2.8h37.09v2.8zm10.39 139.561v-129.17h2.8v129.17h-2.8zm-47.47 10.391h37.08v2.8h-37.08v-2.8zm-13.19 67.489v-54.297h2.8v54.297h-2.8zm-326.202 10.392l315.802-.001v2.8l-315.802.001v-2.8zm-13.192 50.423v-37.232h2.8v37.232h-2.8zm13.192-47.623c-5.739 0-10.392 4.652-10.392 10.391h-2.8c0-7.285 5.906-13.191 13.192-13.191v2.8zm329.002-13.192c0 7.286-5.91 13.191-13.2 13.191v-2.8c5.74 0 10.4-4.652 10.4-10.391h2.8zm10.39-64.689c-5.74 0-10.39 4.653-10.39 10.392h-2.8c0-7.286 5.9-13.192 13.19-13.192v2.8zm50.27-13.191c0 7.285-5.9 13.191-13.19 13.191v-2.8c5.74 0 10.39-4.652 10.39-10.391h2.8zm-13.19-142.361c7.29 0 13.19 5.906 13.19 13.191h-2.8c0-5.739-4.65-10.391-10.39-10.391v-2.8zm-47.48-10.391c0 5.739 4.66 10.391 10.39 10.391v2.8c-7.28 0-13.19-5.906-13.19-13.191h2.8zm-13.19-64.349c7.29 0 13.19 5.906 13.19 13.191h-2.8c0-5.739-4.65-10.391-10.39-10.391v-2.8zm-219.997 13.191c0-7.285 5.906-13.191 13.187-13.191v2.8c-5.734 0-10.387 4.652-10.387 10.391h-2.8zm13.187 68.046c-7.281 0-13.187-5.906-13.187-13.192h2.8c0 5.739 4.653 10.392 10.387 10.392v2.8zm211.41 10.391c0-5.739-4.65-10.391-10.39-10.391v-2.8c7.29 0 13.19 5.906 13.19 13.191h-2.8zm-10.39 135.558c5.74 0 10.39-4.653 10.39-10.392h2.8c0 7.286-5.9 13.192-13.19 13.192v-2.8zm-324.222 13.191c0-7.285 5.906-13.191 13.191-13.191v2.8c-5.739 0-10.391 4.652-10.391 10.391h-2.8zm-10.392 61.494c5.739 0 10.392-4.653 10.392-10.392h2.8c0 7.286-5.906 13.192-13.192 13.192v-2.8zm-36.827 13.191c0-7.285 5.906-13.191 13.191-13.191v2.8c-5.739 0-10.391 4.652-10.391 10.391h-2.8zm37.846 51.125c5.739 0 10.391-4.652 10.391-10.391h2.8c0 7.285-5.906 13.191-13.191 13.191v-2.8zm-24.655 2.8c-7.285 0-13.191-5.906-13.191-13.191h2.8c0 5.739 4.652 10.391 10.391 10.391v2.8z" fill="#000" fill-opacity=".15" mask="url(#path-5-inside-2_3054_812)"/></g><path opacity=".2" fill-rule="evenodd" clip-rule="evenodd" d="M453.352 110.033c9.136 0 16.542-7.406 16.542-16.542v-76.95C469.894 7.406 462.488 0 453.352 0H163.24c-9.136 0-16.541 7.406-16.541 16.541v71.764c0 9.135-7.406 16.541-16.541 16.541H77.729c-9.135 0-16.541 7.406-16.541 16.541v181.202c0 9.135 7.406 16.541 16.541 16.541h52.782c9.135 0 16.541 7.405 16.541 16.541v76.431c0 9.136 7.406 16.542 16.541 16.542h119.333c9.135 0 16.541 7.405 16.541 16.541v28.268c0 9.135 7.406 16.541 16.541 16.541h33.918c9.135 0 16.541-7.406 16.541-16.541v-33.918c0-9.135-7.406-16.541-16.541-16.541h-21.561c-9.135 0-16.541-7.406-16.541-16.541v-71.177c0-9.135-7.406-16.541-16.541-16.541H170.961c-9.135 0-16.541-7.406-16.541-16.541v-175.62c0-9.136 7.406-16.541 16.541-16.541h282.391z" fill="#000" fill-opacity=".15"/><path opacity=".2" fill-rule="evenodd" clip-rule="evenodd" d="M958.633 692.461c-9.135 0-16.541 7.406-16.541 16.541v46.851c0 9.136 7.406 16.542 16.541 16.542h58.787c9.14 0 16.54-7.406 16.54-16.542v-43.961c0-9.136 7.41-16.541 16.55-16.541h20.34c9.14 0 16.54-7.406 16.54-16.542v-23.917c0-9.136-7.4-16.541-16.54-16.541h-20.92c-9.13 0-16.54 7.405-16.54 16.541v21.028c0 9.135-7.4 16.541-16.54 16.541h-58.217z" fill="#000" fill-opacity=".1"/></svg>