<svg width="1440" height="816" fill="none" xmlns="http://www.w3.org/2000/svg"><g clip-path="url(#clip0_3054_387)"><path opacity=".2" fill-rule="evenodd" clip-rule="evenodd" d="M-169.911 171.877c0-8.769-7.109-15.877-15.878-15.877h-74.334c-8.768 0-15.877 7.108-15.877 15.877v278.639c0 8.769 7.109 15.877 15.877 15.877h68.916c8.769 0 15.877 7.109 15.877 15.878v49.852c0 8.769 7.109 15.877 15.878 15.877H14.476c8.769 0 15.877-7.109 15.877-15.877v-57.736c0-8.769-7.108-15.877-15.877-15.877h-168.51c-8.769 0-15.877-7.109-15.877-15.878V171.877zm406.944 83.613c8.769 0 15.877-7.108 15.877-15.877v-33.516c0-8.769-7.108-15.877-15.877-15.877h-91.108c-8.769 0-15.877 7.108-15.877 15.877v33.353c0 8.769-7.109 15.877-15.878 15.877H47.188c-8.769 0-15.878 7.109-15.878 15.877v179.24c0 8.769 7.11 15.878 15.878 15.878h74.214c8.769 0 15.878-7.109 15.878-15.878V271.368c0-8.769 7.108-15.878 15.877-15.878h83.876z" fill="#000" fill-opacity=".15"/><g opacity=".2"><mask id="path-2-inside-1_3054_387" fill="#fff"><path fill-rule="evenodd" clip-rule="evenodd" d="M954.821 364.123c0 8.768 7.109 15.877 15.878 15.877h74.331c8.77 0 15.88-7.108 15.88-15.877V85.484c0-8.769-7.11-15.877-15.88-15.877h-68.913c-8.769 0-15.877-7.109-15.877-15.878V3.878c0-8.77-7.109-15.878-15.878-15.878H770.434c-8.769 0-15.877 7.109-15.877 15.877v57.736c0 8.769 7.108 15.877 15.877 15.877h168.51c8.769 0 15.877 7.109 15.877 15.878v270.755zM547.877 280.51c-8.768 0-15.877 7.108-15.877 15.877v33.516c0 8.769 7.109 15.877 15.877 15.877h91.108c8.769 0 15.878-7.108 15.878-15.877V296.55c0-8.769 7.108-15.877 15.877-15.877h66.982c8.769 0 15.878-7.109 15.878-15.877V85.556c0-8.769-7.109-15.878-15.878-15.878h-74.214c-8.769 0-15.877 7.109-15.877 15.878v179.076c0 8.769-7.109 15.878-15.878 15.878h-83.876z"/></mask><path d="M654.863 296.55h-1.4 1.4zm-15.878 49.23v-1.4 1.4zm15.878-15.877h1.4-1.4zM532 296.387h1.4-1.4zm15.877-15.877v-1.4 1.4zM532 329.903h-1.4 1.4zm15.877 15.877v-1.4 1.4zM770.434-12v1.4-1.4zm173.928 0v-1.4 1.4zm100.668 390.6h-74.331v2.8h74.331v-2.8zm14.48-293.116v278.639h2.8V85.484h-2.8zm-83.393-14.477h68.913v-2.8h-68.913v2.8zM958.84 3.877V53.73h2.8V3.878h-2.8zM770.434-10.6h173.928v-2.8H770.434v2.8zm-14.477 72.213V3.877h-2.8v57.736h2.8zm182.987 14.478h-168.51v2.8h168.51v-2.8zm17.277 288.032V93.368h-2.8v270.755h2.8zM533.4 329.903v-33.516h-2.8v33.516h2.8zm105.585 14.477h-91.108v2.8h91.108v-2.8zm14.478-47.83v33.353h2.8V296.55h-2.8zm84.259-17.277H670.74v2.8h66.982v-2.8zM752.2 85.556v179.24h2.8V85.556h-2.8zm-88.692-14.478h74.214v-2.8h-74.214v2.8zm-14.477 193.554V85.556h-2.8v179.076h2.8zM547.877 281.91h83.876v-2.8h-83.876v2.8zm98.354-17.278c0 7.996-6.482 14.478-14.478 14.478v2.8c9.542 0 17.278-7.736 17.278-17.278h-2.8zm17.277-196.354c-9.542 0-17.277 7.736-17.277 17.278h2.8c0-7.996 6.481-14.478 14.477-14.478v-2.8zM755 85.556c0-9.542-7.736-17.278-17.278-17.278v2.8c7.996 0 14.478 6.482 14.478 14.478h2.8zm-17.278 196.517c9.542 0 17.278-7.735 17.278-17.277h-2.8c0 7.995-6.482 14.477-14.478 14.477v2.8zm-81.459 14.477c0-7.995 6.481-14.477 14.477-14.477v-2.8c-9.542 0-17.277 7.735-17.277 17.277h2.8zm-17.278 50.63c9.542 0 17.278-7.735 17.278-17.277h-2.8c0 7.996-6.482 14.477-14.478 14.477v2.8zM533.4 296.387c0-7.996 6.482-14.477 14.477-14.477v-2.8c-9.542 0-17.277 7.735-17.277 17.277h2.8zm-2.8 33.516c0 9.542 7.735 17.277 17.277 17.277v-2.8c-7.995 0-14.477-6.481-14.477-14.477h-2.8zM938.944 78.89c7.996 0 14.477 6.482 14.477 14.478h2.8c0-9.542-7.735-17.277-17.277-17.277v2.8zM753.157 61.613c0 9.542 7.735 17.277 17.277 17.277v-2.8c-7.996 0-14.477-6.481-14.477-14.477h-2.8zM770.434-13.4c-9.542 0-17.277 7.736-17.277 17.278h2.8c0-7.996 6.481-14.478 14.477-14.478v-2.8zM961.64 3.878c0-9.542-7.736-17.278-17.278-17.278v2.8c7.996 0 14.478 6.482 14.478 14.478h2.8zm14.477 64.329c-7.996 0-14.477-6.482-14.477-14.478h-2.8c0 9.542 7.735 17.278 17.277 17.278v-2.8zm86.193 17.277c0-9.542-7.74-17.277-17.28-17.277v2.8c8 0 14.48 6.481 14.48 14.477h2.8zM970.699 378.6c-7.996 0-14.478-6.482-14.478-14.477h-2.8c0 9.542 7.736 17.277 17.278 17.277v-2.8zm74.331 2.8c9.54 0 17.28-7.735 17.28-17.277h-2.8c0 7.995-6.48 14.477-14.48 14.477v2.8z" fill="#000" fill-opacity=".15" mask="url(#path-2-inside-1_3054_387)"/></g><path opacity=".2" fill-rule="evenodd" clip-rule="evenodd" d="M1181.24 437.792c0-6.513-5.28-11.792-11.79-11.792h-24.66c-6.51 0-11.79 5.279-11.79 11.792v40.734c0 6.512 5.28 11.791 11.79 11.791h23.45c6.51 0 11.79 5.279 11.79 11.791v51.103c0 6.512 5.28 11.791 11.79 11.791h313.22c6.51 0 11.79 5.279 11.79 11.791v125.166c0 6.512-5.28 11.792-11.79 11.792h-202.65c-6.52 0-11.79 5.279-11.79 11.791v54.854c0 6.512 5.27 11.791 11.79 11.791h207.96c6.51 0 11.79-5.279 11.79-11.791v-51.157c0-6.512 5.28-11.791 11.79-11.791h37.57c6.52 0 11.79-5.28 11.79-11.792V576.487c0-6.513-5.27-11.792-11.79-11.792h-37.56c-6.51 0-11.79-5.279-11.79-11.791v-54.298c0-6.512-5.28-11.791-11.8-11.791h-317.32c-6.51 0-11.79-5.279-11.79-11.791v-37.232z" fill="#000" fill-opacity=".15"/><g opacity=".2"><mask id="path-5-inside-2_3054_387" fill="#fff"><path fill-rule="evenodd" clip-rule="evenodd" d="M690.057 421.396c0 6.512 5.28 11.791 11.792 11.791h24.654c6.513 0 11.792-5.279 11.792-11.791v-40.734c0-6.512-5.279-11.791-11.792-11.791h-23.444c-6.512 0-11.791-5.28-11.791-11.792v-51.102c0-6.512-5.28-11.791-11.792-11.791H366.252c-6.512 0-11.791-5.28-11.791-11.792V157.228c0-6.512 5.279-11.791 11.791-11.791h202.656c6.512 0 11.791-5.279 11.791-11.792V78.791c0-6.512-5.279-11.791-11.791-11.791H360.943c-6.512 0-11.791 5.28-11.791 11.791v51.158c0 6.512-5.279 11.791-11.791 11.791h-37.569c-6.513 0-11.792 5.279-11.792 11.791v129.17c0 6.512 5.279 11.791 11.792 11.791h37.565c6.513 0 11.792 5.279 11.792 11.792v54.297c0 6.512 5.279 11.791 11.791 11.791l317.326.001c6.512 0 11.791 5.279 11.791 11.791v37.232z"/></mask><path d="M690.057 384.164h1.4-1.4zm-352.7-89.672v-1.4 1.4zm-37.565 0v1.4-1.4zm0-152.752v1.4-1.4zm49.36-11.791h-1.4 1.4zm-11.791 11.791v-1.4 1.4zm11.791-62.949h1.4-1.4zm219.756 66.646v-1.4 1.4zm-214.447 11.791h-1.4 1.4zm0 125.166h-1.4 1.4zm335.596 139.002h-1.4 1.4zm36.446 10.391h-24.654v2.8h24.654v-2.8zm10.392-51.125v40.734h2.8v-40.734h-2.8zm-33.836-10.391h23.444v-2.8h-23.444v2.8zm-13.191-64.294v51.102h2.8v-51.102h-2.8zm-323.616-10.391h313.224v-2.8H366.252v2.8zm-13.191-138.358v125.166h2.8V157.228h-2.8zm215.847-13.191H366.252v2.8h202.656v-2.8zm10.391-65.246v54.854h2.8V78.791h-2.8zM360.943 68.4h207.965v-2.8H360.943v2.8zm-10.391 61.549V78.791h-2.8v51.158h2.8zm-50.76 13.191h37.569v-2.8h-37.569v2.8zM289.4 282.701v-129.17h-2.8v129.17h2.8zm47.957 10.391h-37.565v2.8h37.565v-2.8zm13.192 67.489v-54.297h-2.8v54.297h2.8zm327.717 10.392H360.94v2.8h317.326v-2.8zm13.191 50.423v-37.232h-2.8v37.232h2.8zm-13.191-47.623c5.739 0 10.391 4.652 10.391 10.391h2.8c0-7.285-5.906-13.191-13.191-13.191v2.8zm-330.517-13.192c0 7.286 5.906 13.192 13.191 13.192v-2.8c-5.739 0-10.391-4.653-10.391-10.392h-2.8zm-10.392-64.689c5.739 0 10.392 4.653 10.392 10.392h2.8c0-7.286-5.906-13.192-13.192-13.192v2.8zM286.6 282.701c0 7.285 5.906 13.191 13.192 13.191v-2.8c-5.739 0-10.392-4.652-10.392-10.391h-2.8zm13.192-142.361c-7.286 0-13.192 5.906-13.192 13.191h2.8c0-5.739 4.653-10.391 10.392-10.391v-2.8zm47.96-10.391c0 5.739-4.652 10.391-10.391 10.391v2.8c7.285 0 13.191-5.906 13.191-13.191h-2.8zM360.943 65.6c-7.285 0-13.191 5.906-13.191 13.191h2.8c0-5.739 4.652-10.391 10.391-10.391v-2.8zm221.156 13.191c0-7.285-5.906-13.191-13.191-13.191v2.8c5.739 0 10.391 4.652 10.391 10.391h2.8zm-13.191 68.046c7.285 0 13.191-5.906 13.191-13.192h-2.8c0 5.739-4.652 10.392-10.391 10.392v2.8zm-213.047 10.391c0-5.739 4.652-10.391 10.391-10.391v-2.8c-7.285 0-13.191 5.906-13.191 13.191h2.8zm10.391 135.558c-5.739 0-10.391-4.653-10.391-10.392h-2.8c0 7.285 5.906 13.192 13.191 13.192v-2.8zm326.416 13.191c0-7.285-5.906-13.191-13.192-13.191v2.8c5.739 0 10.392 4.652 10.392 10.391h2.8zm10.391 61.494c-5.739 0-10.391-4.653-10.391-10.392h-2.8c0 7.286 5.906 13.192 13.191 13.192v-2.8zm36.636 13.191c0-7.285-5.906-13.191-13.192-13.191v2.8c5.74 0 10.392 4.652 10.392 10.391h2.8zm-37.846 51.125c-5.739 0-10.392-4.652-10.392-10.391h-2.8c0 7.285 5.906 13.191 13.192 13.191v-2.8zm24.654 2.8c7.286 0 13.192-5.906 13.192-13.191h-2.8c0 5.739-4.652 10.391-10.392 10.391v2.8z" fill="#000" fill-opacity=".15" mask="url(#path-5-inside-2_3054_387)"/></g><path opacity=".2" fill-rule="evenodd" clip-rule="evenodd" d="M1119.54-25.967c-9.13 0-16.54-7.406-16.54-16.542v-76.95c0-9.135 7.41-16.541 16.54-16.541h291.74c9.13 0 16.54 7.406 16.54 16.541v71.764c0 9.135 7.4 16.541 16.54 16.541h53.3c9.13 0 16.54 7.406 16.54 16.541V166.59c0 9.135-7.41 16.541-16.54 16.541H1444c-9.13 0-16.54 7.406-16.54 16.541v76.431c0 9.136-7.4 16.542-16.54 16.542h-121.46c-9.13 0-16.54 7.405-16.54 16.541v28.268c0 9.135-7.41 16.541-16.54 16.541h-33.92c-9.13 0-16.54-7.406-16.54-16.541v-33.918c0-9.135 7.41-16.541 16.54-16.541h22.86c9.14 0 16.54-7.406 16.54-16.541v-71.177c0-9.135 7.41-16.541 16.54-16.541h126.03c9.13 0 16.54-7.406 16.54-16.541V-9.426c0-9.136-7.41-16.541-16.54-16.541h-284.89z" fill="#000" fill-opacity=".15"/><path opacity=".2" fill-rule="evenodd" clip-rule="evenodd" d="M611.888 556.461c9.136 0 16.542 7.406 16.542 16.541v46.851c0 9.136-7.406 16.542-16.541 16.542h-59.253c-9.135 0-16.541-7.406-16.541-16.542v-43.961c0-9.136-7.406-16.541-16.541-16.541h-20.788c-9.136 0-16.541-7.406-16.541-16.542v-23.917c0-9.136 7.405-16.541 16.541-16.541h20.917c9.136 0 16.542 7.405 16.542 16.541v21.028c0 9.135 7.405 16.541 16.541 16.541h59.122z" fill="#000" fill-opacity=".1"/><path opacity=".1" d="M104.011 245.159c-.712 0-1.352-.136-1.92-.409a3.498 3.498 0 01-1.353-1.136 2.997 2.997 0 01-.539-1.648h1.704c.042.5.264.911.665 1.233.402.322.883.483 1.443.483a2.28 2.28 0 001.188-.307 2.2 2.2 0 00.818-.858c.201-.364.301-.778.301-1.244 0-.474-.102-.896-.307-1.267a2.26 2.26 0 00-.846-.875 2.397 2.397 0 00-1.228-.324c-.352 0-.706.06-1.062.182a2.47 2.47 0 00-.864.477l-1.608-.239.654-5.863h6.397v1.505h-4.937l-.369 3.256h.068c.227-.22.528-.403.903-.551a3.312 3.312 0 011.216-.222c.708 0 1.339.169 1.892.506.557.337.994.797 1.313 1.381.322.579.481 1.246.477 2 .004.753-.167 1.426-.511 2.017a3.704 3.704 0 01-1.421 1.397c-.602.338-1.293.506-2.074.506zm9.78.034c-.897-.004-1.664-.24-2.301-.71-.636-.47-1.123-1.153-1.46-2.051-.337-.898-.506-1.979-.506-3.244 0-1.262.169-2.34.506-3.233.341-.894.83-1.576 1.466-2.046.64-.47 1.405-.704 2.295-.704.89 0 1.654.236 2.29.71.636.469 1.123 1.151 1.46 2.045.341.89.512 1.966.512 3.228 0 1.268-.169 2.352-.506 3.25-.337.893-.824 1.577-1.46 2.051-.637.469-1.402.704-2.296.704zm0-1.517c.788 0 1.404-.384 1.847-1.153.447-.769.67-1.881.67-3.335 0-.966-.102-1.783-.306-2.449-.201-.671-.491-1.178-.87-1.523a1.9 1.9 0 00-1.341-.523c-.784 0-1.399.387-1.846 1.159-.447.773-.673 1.885-.676 3.336 0 .969.1 1.789.301 2.46.204.666.494 1.172.869 1.517a1.94 1.94 0 001.352.511z" fill="#000"/><path opacity=".09" d="M1285.23 317v-1.273l3.93-4.079c.42-.443.77-.832 1.04-1.165.28-.337.49-.657.62-.96.14-.303.21-.625.21-.966 0-.387-.09-.72-.28-1a1.792 1.792 0 00-.74-.654 2.39 2.39 0 00-1.06-.233c-.42 0-.78.086-1.09.256-.31.171-.55.411-.72.722-.17.31-.25.674-.25 1.091h-1.68c0-.709.17-1.328.49-1.858.33-.531.78-.942 1.34-1.233.57-.296 1.22-.443 1.94-.443.73 0 1.38.145 1.93.437.56.288 1 .682 1.32 1.182.31.496.47 1.057.47 1.682 0 .432-.08.854-.25 1.267-.16.413-.44.873-.83 1.38-.4.504-.95 1.116-1.66 1.836l-2.31 2.42v.085h5.23V317h-7.65zm13.51.193c-.9-.004-1.67-.24-2.3-.71-.64-.47-1.13-1.153-1.46-2.051-.34-.898-.51-1.979-.51-3.244 0-1.262.17-2.34.51-3.233.34-.894.82-1.576 1.46-2.046.64-.47 1.41-.704 2.3-.704.89 0 1.65.236 2.29.71.63.469 1.12 1.151 1.46 2.045.34.89.51 1.966.51 3.228 0 1.268-.17 2.352-.51 3.25-.33.893-.82 1.577-1.46 2.051-.63.469-1.4.704-2.29.704zm0-1.517c.78 0 1.4-.384 1.84-1.153.45-.769.67-1.881.67-3.335 0-.966-.1-1.783-.3-2.449-.2-.671-.49-1.178-.87-1.523a1.905 1.905 0 00-1.34-.523c-.79 0-1.4.387-1.85 1.159-.45.773-.67 1.885-.68 3.336 0 .969.1 1.789.31 2.46.2.666.49 1.172.86 1.517.38.341.83.511 1.36.511z" fill="#000"/><path opacity=".06" d="M920.117 101.455V86.909h.932v14.546h-.932zm2.915-10.034a1.662 1.662 0 00-.75-1.25c-.44-.3-.993-.45-1.659-.45-.478 0-.891.076-1.239.228a1.91 1.91 0 00-.813.614 1.451 1.451 0 00-.284.88c0 .277.065.515.194.716.132.2.304.37.517.506.216.132.447.244.693.335.246.087.483.16.71.216l1.136.295a8.54 8.54 0 011.142.37c.391.155.752.36 1.086.613.333.254.602.569.806.944.209.374.313.823.313 1.346 0 .66-.17 1.244-.511 1.756-.338.511-.828.914-1.472 1.21-.64.295-1.415.443-2.324.443-.871 0-1.625-.138-2.261-.415-.637-.276-1.135-.668-1.495-1.176-.359-.511-.558-1.117-.596-1.818h1.761c.034.42.171.77.409 1.051.243.277.551.483.926.62.379.132.794.198 1.245.198.496 0 .937-.077 1.324-.233.39-.159.697-.378.92-.659.224-.284.335-.615.335-.994 0-.345-.098-.627-.295-.846a2.185 2.185 0 00-.79-.546 7.73 7.73 0 00-1.119-.38l-1.375-.376c-.932-.254-1.671-.627-2.216-1.119-.542-.492-.813-1.144-.813-1.954 0-.671.182-1.256.546-1.756.363-.5.856-.889 1.477-1.165.621-.28 1.322-.42 2.102-.42.788 0 1.483.138 2.086.414.606.277 1.083.657 1.431 1.142.349.481.531 1.035.546 1.66h-1.693zm7.03 10.034V86.909h.932v14.546h-.932zm2.915-10.034a1.662 1.662 0 00-.75-1.25c-.44-.3-.993-.45-1.66-.45-.477 0-.89.076-1.238.228a1.91 1.91 0 00-.813.614 1.451 1.451 0 00-.284.88c0 .277.065.515.193.716.133.2.305.37.517.506.216.132.447.244.694.335.246.087.483.16.71.216l1.136.295c.371.091.752.214 1.142.37.39.155.752.36 1.086.613.333.254.602.569.806.944.209.374.313.823.313 1.346 0 .66-.171 1.244-.512 1.756-.337.511-.827.914-1.471 1.21-.64.295-1.415.443-2.324.443-.871 0-1.625-.138-2.261-.415-.637-.276-1.135-.668-1.495-1.176-.36-.511-.558-1.117-.596-1.818h1.761c.034.42.171.77.409 1.051.243.277.551.483.926.62.379.132.794.198 1.245.198.496 0 .937-.077 1.324-.233.39-.159.696-.378.92-.659.223-.284.335-.615.335-.994 0-.345-.098-.627-.295-.846a2.185 2.185 0 00-.79-.546 7.772 7.772 0 00-1.119-.38l-1.375-.376c-.932-.254-1.671-.627-2.216-1.119-.542-.492-.813-1.144-.813-1.954 0-.671.182-1.256.546-1.756.363-.5.856-.889 1.477-1.165.621-.28 1.322-.42 2.102-.42.788 0 1.483.138 2.085.414.607.277 1.084.657 1.432 1.142.349.481.531 1.035.546 1.66h-1.693zm7.03 10.034V86.909h.931v14.546h-.931zm2.914-10.034a1.656 1.656 0 00-.75-1.25c-.439-.3-.992-.45-1.659-.45-.477 0-.89.076-1.238.228-.349.148-.62.352-.813.614a1.451 1.451 0 00-.284.88c0 .277.065.515.193.716.133.2.305.37.517.506.216.132.447.244.694.335.246.087.482.16.71.216l1.136.295c.371.091.752.214 1.142.37.39.155.752.36 1.085.613.334.254.603.569.807.944.209.374.313.823.313 1.346 0 .66-.171 1.244-.512 1.756-.337.511-.827.914-1.471 1.21-.64.295-1.415.443-2.324.443-.871 0-1.625-.138-2.261-.415-.637-.276-1.135-.668-1.495-1.176-.36-.511-.559-1.117-.596-1.818h1.761c.034.42.17.77.409 1.051.242.277.551.483.926.62.379.132.794.198 1.245.198.496 0 .937-.077 1.323-.233.391-.159.697-.378.921-.659.223-.284.335-.615.335-.994 0-.345-.098-.627-.295-.846a2.193 2.193 0 00-.79-.546 7.772 7.772 0 00-1.119-.38l-1.375-.376c-.932-.254-1.671-.627-2.216-1.119-.542-.492-.813-1.144-.813-1.954 0-.671.182-1.256.546-1.756.363-.5.856-.889 1.477-1.165.621-.28 1.322-.42 2.102-.42.788 0 1.483.138 2.085.414.606.277 1.084.657 1.432 1.142.349.481.53 1.035.546 1.66h-1.694zm-631.085 28.943V132h-1.762v-9.875h-.068l-2.784 1.818v-1.682l2.903-1.897h1.711zm6.846 11.795c-.78 0-1.477-.134-2.091-.403-.609-.269-1.092-.642-1.448-1.12a2.97 2.97 0 01-.569-1.67h1.785c.022.345.138.644.346.898.212.25.489.443.83.579a3.02 3.02 0 001.136.205c.458 0 .864-.08 1.216-.239a1.99 1.99 0 00.835-.665c.201-.288.301-.619.301-.994 0-.39-.1-.733-.301-1.028-.197-.3-.487-.535-.869-.705-.379-.17-.837-.256-1.375-.256h-.983v-1.431h.983c.432 0 .81-.078 1.136-.233.33-.156.587-.372.773-.648.186-.28.278-.608.278-.983 0-.36-.081-.672-.244-.938a1.633 1.633 0 00-.682-.63c-.291-.152-.636-.228-1.034-.228-.379 0-.733.071-1.062.211a1.958 1.958 0 00-.796.591 1.518 1.518 0 00-.329.914h-1.699a2.87 2.87 0 01.557-1.659c.356-.477.825-.85 1.409-1.119a4.583 4.583 0 011.943-.403c.746 0 1.39.145 1.932.437.545.288.966.672 1.261 1.153a2.9 2.9 0 01.443 1.58c.004.652-.178 1.205-.545 1.659-.364.455-.849.76-1.455.915v.091c.773.117 1.371.424 1.796.92.428.496.64 1.112.636 1.847a2.869 2.869 0 01-.534 1.721c-.356.508-.843.908-1.46 1.199-.618.288-1.324.432-2.12.432zm9.961 0c-.78 0-1.477-.134-2.091-.403-.61-.269-1.093-.642-1.449-1.12a2.97 2.97 0 01-.568-1.67h1.784c.023.345.138.644.347.898.212.25.488.443.829.579.341.137.72.205 1.137.205.458 0 .863-.08 1.215-.239.356-.159.635-.381.836-.665a1.7 1.7 0 00.301-.994c0-.39-.101-.733-.301-1.028-.197-.3-.487-.535-.87-.705-.378-.17-.837-.256-1.375-.256h-.983v-1.431h.983a2.62 2.62 0 001.137-.233c.329-.156.587-.372.772-.648.186-.28.279-.608.279-.983 0-.36-.082-.672-.244-.938a1.645 1.645 0 00-.682-.63c-.292-.152-.637-.228-1.034-.228-.379 0-.733.071-1.063.211a1.948 1.948 0 00-.795.591 1.512 1.512 0 00-.33.914h-1.699a2.876 2.876 0 01.557-1.659c.356-.477.826-.85 1.409-1.119a4.583 4.583 0 011.943-.403c.747 0 1.39.145 1.932.437.546.288.966.672 1.262 1.153.299.482.446 1.008.443 1.58.003.652-.178 1.205-.546 1.659-.363.455-.848.76-1.454.915v.091c.772.117 1.371.424 1.795.92.428.496.64 1.112.637 1.847a2.876 2.876 0 01-.535 1.721c-.356.508-.842.908-1.46 1.199-.617.288-1.324.432-2.119.432zm6.301-.159l5.08-10.045v-.086h-5.875v-1.505h7.693v1.556L336.78 132h-1.836z" fill="#000"/></g><defs><clipPath id="clip0_3054_387"><path fill="#fff" d="M0 0h1440v816H0z"/></clipPath></defs></svg>