<svg width="116" height="20" fill="none" xmlns="http://www.w3.org/2000/svg"><path d="M15.546.404c0-.141 0-.212-.028-.266a.253.253 0 00-.11-.11C15.354 0 15.283 0 15.142 0h-4.374c-.141 0-.212 0-.266.028a.252.252 0 00-.11.11c-.028.054-.028.125-.028.266v3.21c0 .5 0 .75-.089.861a.388.388 0 01-.317.152c-.142 0-.346-.166-.755-.495A14.597 14.597 0 00.404.89C.267.886.198.884.142.911a.257.257 0 00-.114.111C0 1.077 0 1.148 0 1.29v5.257c0 .141 0 .212.026.265a.246.246 0 00.105.11c.051.028.125.032.273.038a8.55 8.55 0 014.453 1.494c.343.235.515.353.548.511a.433.433 0 01-.117.376c-.117.112-.342.112-.793.112H.43c-.142 0-.213 0-.267.028a.253.253 0 00-.11.11c-.028.054-.028.125-.028.266v5.257c0 .142 0 .213.028.267a.253.253 0 00.11.11c.054.028.125.028.267.028h5.258c.141 0 .212 0 .266-.028a.253.253 0 00.11-.11c.028-.055.028-.125.028-.267V11.05c0-.451 0-.676.112-.794a.433.433 0 01.376-.116c.158.033.276.205.511.547a8.546 8.546 0 011.494 4.453c.007.148.01.222.039.273a.246.246 0 00.11.105c.052.026.123.026.265.026h5.258c.141 0 .212 0 .267-.029a.256.256 0 00.11-.114c.027-.055.025-.124.022-.262a14.59 14.59 0 00-3.242-8.796c-.33-.409-.495-.613-.496-.755 0-.13.05-.236.152-.317.11-.09.361-.09.862-.09h1.97c.567 0 .85 0 1.067.111.19.097.345.252.441.442.11.216.11.5.11 1.065v8.315c0 .142 0 .213.028.267a.252.252 0 00.11.11c.055.028.126.028.267.028h4.373c.142 0 .213 0 .267-.028a.253.253 0 00.11-.11c.028-.055.028-.125.028-.267V5.56c0-.141 0-.212-.028-.266a.253.253 0 00-.11-.11c-.055-.028-.125-.028-.267-.028h-3.134c-.567 0-.85 0-1.066-.11a1.012 1.012 0 01-.442-.442c-.11-.217-.11-.5-.11-1.066V.404zm22.632 5.27c1.026 0 1.855.395 2.486 1.184.645.79.967 1.796.967 3.02v6.175h-2.664v-5.702c0-.658-.178-1.197-.533-1.618-.342-.421-.776-.632-1.302-.632-.593 0-1.08.21-1.46.632-.37.42-.553.96-.553 1.618v5.702h-2.665v-5.702c0-.658-.178-1.197-.533-1.618-.342-.421-.77-.632-1.283-.632-.592 0-1.079.21-1.46.632-.368.42-.553.96-.553 1.618v5.702h-2.664V5.873h2.664v2.466c.264-.829.665-1.48 1.204-1.953a2.88 2.88 0 011.934-.71c.79 0 1.46.243 2.013.73.553.486.941 1.144 1.165 1.973.25-.83.664-1.487 1.243-1.974a3.009 3.009 0 011.994-.73zm6.265 9.058c-1.04-1.013-1.56-2.27-1.56-3.77s.52-2.755 1.56-3.768 2.335-1.52 3.888-1.52c1.552 0 2.848.507 3.888 1.52s1.559 2.269 1.559 3.769-.52 2.756-1.56 3.769c-1.039 1.012-2.335 1.519-3.887 1.519-1.553 0-2.849-.507-3.888-1.52zm1.204-3.77c0 .816.256 1.5.77 2.053.513.54 1.15.809 1.914.809.763 0 1.401-.27 1.914-.81.513-.552.77-1.236.77-2.051 0-.816-.257-1.493-.77-2.033-.513-.54-1.151-.809-1.914-.809-.763 0-1.401.276-1.915.829-.513.54-.77 1.21-.77 2.013zm12.14-5.09v2.644c.329-1.237.835-2.059 1.52-2.467.697-.408 1.46-.48 2.289-.217v2.526c-1.066-.368-1.967-.349-2.704.06-.737.394-1.105 1.038-1.105 1.933v5.702h-2.665V5.873h2.665zm11.295-.198c1.263 0 2.31.507 3.138 1.52.83 1.013 1.244 2.269 1.244 3.769s-.415 2.756-1.244 3.769c-.829 1.012-1.875 1.519-3.138 1.519-.894 0-1.67-.276-2.328-.829-.645-.566-1.119-1.329-1.422-2.289V20h-2.664V5.872h2.664v2.92c.303-.96.777-1.717 1.422-2.27.657-.565 1.434-.848 2.328-.848zm-.967 8.15c.724 0 1.336-.27 1.836-.81.5-.552.75-1.236.75-2.051 0-.803-.25-1.474-.75-2.013-.5-.553-1.112-.829-1.836-.829-.802 0-1.467.27-1.993.81-.526.539-.79 1.216-.79 2.032 0 .815.264 1.5.79 2.052.526.54 1.19.809 1.993.809zm12.863-8.15c1.132 0 2.04.395 2.724 1.184.697.79 1.046 1.796 1.046 3.02v6.175h-2.664v-5.702c0-.658-.21-1.197-.632-1.618-.42-.421-.947-.632-1.579-.632-.71 0-1.29.21-1.737.632-.447.42-.67.96-.67 1.618v5.702H74.8V1.452h2.664v7.024c.264-.868.704-1.552 1.323-2.052a3.43 3.43 0 012.19-.75zm5.159-2.624c0-.447.158-.822.474-1.125a1.56 1.56 0 011.145-.473c.434 0 .809.157 1.125.473.315.303.473.678.473 1.125 0 .434-.158.809-.473 1.125a1.54 1.54 0 01-1.125.473 1.56 1.56 0 01-1.145-.473 1.536 1.536 0 01-.474-1.125zm2.941 13.004h-2.664V5.871h2.664v10.181zm1.148-2.744l2.664-.552c.119.921.724 1.382 1.816 1.382.54 0 .974-.1 1.302-.296.33-.211.494-.467.494-.77 0-.29-.151-.52-.454-.69-.29-.172-.658-.284-1.105-.336a14.64 14.64 0 01-1.44-.257 10.876 10.876 0 01-1.442-.434c-.434-.17-.802-.467-1.105-.888-.29-.42-.434-.947-.434-1.578 0-.921.395-1.684 1.184-2.29.803-.618 1.803-.927 3-.927s2.184.27 2.96.81c.777.526 1.237 1.236 1.382 2.13l-2.645.553c-.131-.92-.697-1.381-1.697-1.381-.434 0-.796.092-1.085.276-.277.184-.415.42-.415.71 0 .303.145.54.434.71.303.172.671.284 1.105.336.448.053.928.145 1.441.276a9.807 9.807 0 011.44.434 2.3 2.3 0 011.106.908c.303.421.454.954.454 1.598 0 .908-.434 1.671-1.303 2.29-.868.618-1.927.927-3.177.927s-2.276-.263-3.079-.79c-.79-.539-1.256-1.256-1.401-2.15zm22.32-7.636c1.026 0 1.855.395 2.487 1.184.645.79.967 1.796.967 3.02v6.175h-2.664v-5.702c0-.658-.178-1.197-.533-1.618-.342-.421-.776-.632-1.303-.632-.592 0-1.079.21-1.46.632-.369.42-.553.96-.553 1.618v5.702h-2.664v-5.702c0-.658-.178-1.197-.533-1.618-.342-.421-.77-.632-1.283-.632-.592 0-1.079.21-1.46.632-.369.42-.553.96-.553 1.618v5.702h-2.664V5.873h2.664v2.466c.263-.829.665-1.48 1.204-1.953a2.88 2.88 0 011.934-.71c.79 0 1.461.243 2.013.73.553.486.941 1.144 1.165 1.973.25-.83.664-1.487 1.243-1.974a3.008 3.008 0 011.993-.73z" fill="#060907"/></svg>