<svg width="282" height="419" fill="none" xmlns="http://www.w3.org/2000/svg"><path fill-rule="evenodd" clip-rule="evenodd" d="M161 324c-9.428 0-14.142 0-17.071-2.929C141 318.142 141 313.428 141 304V.5a.5.5 0 00-1 0v313.16c0 .316 0 .474-.004.607a9.999 9.999 0 01-9.729 9.729c-.133.004-.291.004-.607.004h-16.88c-.466 0-.78-.535-.78-1a2 2 0 00-2-2h-9a2 2 0 00-2 2c0 .465-.314 1-.78 1H85.78c-.466 0-.78-.535-.78-1a2 2 0 00-2-2H37a2 2 0 00-2 2c0 .465-.314 1-.78 1H28c-15.464 0-28 12.536-28 28v36c0 15.464 12.536 28 28 28h88.22c.466 0 .78.535.78 1a2 2 0 002 2h54a2 2 0 002-2c0-.465.314-1 .78-1h59.44c.466 0 .78.535.78 1a2 2 0 002 2h11a2 2 0 002-2c0-.465.314-1 .78-1H254c15.464 0 28-12.536 28-28v-36c0-15.464-12.536-28-28-28h-93zm-76 90c0 .465.314 1 .78 1H254c14.912 0 27-12.088 27-27v-36c0-14.912-12.088-27-27-27h-14.22c-.466 0-.78.535-.78 1a2 2 0 01-2 2h-46a2 2 0 01-2-2c0-.465-.314-1-.78-1H28c-14.912 0-27 12.088-27 27v36c0 14.912 12.088 27 27 27h6.22c.466 0 .78-.535.78-1a2 2 0 012-2h46a2 2 0 012 2z" fill="url(#paint0_linear_974_1740)"/><defs><linearGradient id="paint0_linear_974_1740" x1="141" y1="0" x2="141" y2="416" gradientUnits="userSpaceOnUse"><stop stop-color="#BDF925" stop-opacity="0"/><stop offset=".524" stop-color="#BDF925" stop-opacity=".3"/><stop offset="1" stop-color="#BDF925" stop-opacity=".4"/></linearGradient></defs></svg>