<svg width="1440" height="946" fill="none" xmlns="http://www.w3.org/2000/svg"><g clip-path="url(#clip0_3054_350)"><path opacity=".2" fill-rule="evenodd" clip-rule="evenodd" d="M-48.13 636.444c.078 8.769-6.966 15.941-15.734 16.02l-74.332.668c-8.768.079-15.94-6.965-16.019-15.733l-2.506-278.628c-.079-8.768 6.966-15.941 15.734-16.019l68.913-.62c8.769-.079 15.813-7.251 15.734-16.02l-.448-49.849c-.079-8.769 6.965-15.941 15.734-16.02l173.921-1.564c8.769-.078 15.941 6.966 16.02 15.734l.519 57.734c.079 8.768-6.965 15.94-15.734 16.019l-168.504 1.515c-8.768.079-15.812 7.251-15.733 16.02l2.434 270.743zm406.176-87.269c8.769-.078 15.941 6.966 16.02 15.734l.301 33.515c.079 8.768-6.965 15.941-15.734 16.019l-91.104.82c-8.769.079-15.941-6.966-16.02-15.734l-.3-33.352c-.078-8.768-7.251-15.813-16.019-15.734l-66.979.602c-8.769.079-15.941-6.965-16.02-15.733l-1.612-179.233c-.079-8.768 6.966-15.941 15.734-16.019l74.212-.668c8.768-.079 15.94 6.966 16.019 15.734l1.611 179.07c.078 8.768 7.251 15.812 16.019 15.734l83.872-.755z" fill="#000" fill-opacity=".15"/><g opacity=".2"><mask id="path-2-inside-1_3054_350" fill="#fff"><path fill-rule="evenodd" clip-rule="evenodd" d="M1074.83 434.092c-.08-8.768 6.96-15.94 15.73-16.019l74.33-.669c8.77-.079 15.94 6.966 16.02 15.734l2.51 278.628c.08 8.768-6.97 15.94-15.74 16.019l-68.91.62c-8.77.079-15.81 7.251-15.73 16.019l.45 49.851c.07 8.768-6.97 15.94-15.74 16.019l-173.92 1.564c-8.769.079-15.941-6.965-16.02-15.734l-.519-57.733c-.079-8.768 6.966-15.941 15.734-16.019l168.505-1.516c8.77-.079 15.81-7.251 15.73-16.019l-2.43-270.745zm-406.179 87.27c-8.768.079-15.94-6.965-16.019-15.734l-.302-33.514c-.079-8.769 6.966-15.941 15.734-16.02l91.104-.819c8.769-.079 15.941 6.965 16.02 15.734l.3 33.352c.079 8.768 7.251 15.812 16.019 15.734l66.98-.603c8.768-.079 15.94 6.966 16.019 15.734l1.612 179.233c.079 8.768-6.966 15.94-15.734 16.019l-74.211.667c-8.769.079-15.941-6.965-16.02-15.733l-1.61-179.07c-.079-8.769-7.251-15.813-16.02-15.734l-83.872.754z"/></mask><path d="M858.487 519.492l.012 1.4-.012-1.4zm-99.319-64.217l.013 1.4-.013-1.4zm-106.536 50.353l1.4-.012-1.4.012zm16.019 15.734l.013 1.4-.013-1.4zm-16.321-49.248l-1.4.012 1.4-.012zm15.734-16.02l.013 1.4-.013-1.4zm209.227 282.297l1.4-.013-1.4.013zm.519 57.733l-1.4.013 1.4-.013zm212.75-378.051l.01 1.4-.01-1.4zm74.35.731l-74.34.669-.02-2.8 74.33-.669.03 2.8zm17.11 292.974l-2.51-278.627 2.8-.025 2.51 278.627-2.8.025zm-83.26 15.227l68.91-.62.03 2.8-68.92.62-.02-2.8zm-16.67 67.282l-.45-49.85 2.8-.025.45 49.85-2.8.025zm-188.273 16.171l173.923-1.564.02 2.8-173.918 1.564-.025-2.8zm-15.126-72.08l.519 57.734-2.8.025-.519-57.733 2.8-.026zm182.849-16.122l-168.502 1.516-.026-2.8 168.508-1.516.02 2.8zm14.69-288.176l2.43 270.744-2.8.025-2.43-270.744 2.8-.025zm-422.5 38.021l.302 33.515-2.8.025-.302-33.515 2.8-.025zm105.451-15.426l-91.104.819-.025-2.8 91.104-.819.025 2.8zm14.907 47.698l-.3-33.352 2.8-.025.3 33.352-2.8.025zm84.411 16.519l-66.979.602-.025-2.799 66.979-.603.025 2.8zm16.219 193.579l-1.612-179.232 2.8-.026 1.612 179.233-2.8.025zm-88.558 15.274l74.211-.667.026 2.8-74.212.667-.025-2.8zm-16.217-193.416l1.61 179.07-2.8.025-1.61-179.07 2.8-.025zm-101.304-16.367l83.872-.754.025 2.8-83.872.754-.025-2.8zm98.504 16.392c-.072-7.995-6.612-14.418-14.607-14.346l-.025-2.8c9.541-.086 17.346 7.58 17.432 17.121l-2.8.025zm19.042 196.191c-9.541.086-17.346-7.579-17.432-17.121l2.8-.025c.072 7.995 6.612 14.418 14.607 14.346l.025 2.8zm91.333-18.099c.086 9.542-7.58 17.346-17.121 17.432l-.026-2.8c7.996-.072 14.419-6.612 14.347-14.607l2.8-.025zm-19.044-196.354c9.542-.086 17.346 7.58 17.432 17.121l-2.8.026c-.072-7.996-6.612-14.419-14.607-14.347l-.025-2.8zm-81.586-13.744c.072 7.995 6.611 14.418 14.607 14.347l.025 2.799c-9.542.086-17.346-7.579-17.432-17.121l2.8-.025zm-17.732-50.473c9.541-.086 17.346 7.579 17.432 17.121l-2.8.025c-.072-7.995-6.612-14.418-14.607-14.346l-.025-2.8zm-105.124 51.741c.072 7.995 6.611 14.418 14.607 14.346l.025 2.8c-9.542.086-17.346-7.579-17.432-17.121l2.8-.025zm-3.102-33.49c-.085-9.541 7.58-17.346 17.122-17.432l.025 2.8c-7.996.072-14.419 6.612-14.347 14.607l-2.8.025zm410.59 247.33c7.99-.072 14.41-6.611 14.34-14.607l2.8-.025c.09 9.542-7.58 17.346-17.12 17.432l-.02-2.8zm-185.629 18.948c-.086-9.542 7.58-17.347 17.121-17.432l.026 2.8c-7.996.071-14.419 6.611-14.347 14.606l-2.8.026zm17.951 74.854c-9.541.086-17.346-7.579-17.432-17.121l2.8-.025c.072 7.995 6.612 14.418 14.607 14.346l.025 2.8zm191.048-18.996c.08 9.542-7.58 17.346-17.13 17.432l-.02-2.8c7.99-.072 14.42-6.611 14.35-14.607l2.8-.025zm13.89-64.457c-7.99.072-14.42 6.611-14.34 14.607l-2.8.025c-.09-9.542 7.58-17.346 17.12-17.432l.02 2.8zm86.04-18.052c.08 9.542-7.58 17.346-17.12 17.432l-.03-2.8c8-.072 14.42-6.612 14.35-14.607l2.8-.025zm-94.25-292.28c-7.99.072-14.41 6.611-14.34 14.607l-2.8.025c-.09-9.542 7.58-17.346 17.12-17.432l.02 2.8zm74.31-3.469c9.54-.085 17.35 7.58 17.43 17.122l-2.8.025c-.07-7.996-6.61-14.419-14.6-14.347l-.03-2.8z" fill="#000" fill-opacity=".15" mask="url(#path-2-inside-1_3054_350)"/></g><path opacity=".2" fill-rule="evenodd" clip-rule="evenodd" d="M1300.57 358.39c.06 6.512-5.17 11.838-11.68 11.897l-24.66.222c-6.51.058-11.83-5.173-11.89-11.685l-.37-40.732c-.06-6.512 5.17-11.839 11.69-11.897l23.44-.211c6.51-.059 11.74-5.385 11.68-11.897l-.46-51.1c-.05-6.512 5.18-11.839 11.69-11.897l313.21-2.817c6.51-.059 11.75-5.385 11.69-11.897l-1.13-125.161c-.06-6.512-5.38-11.743-11.9-11.685l-202.64 1.823c-6.52.058-11.84-5.173-11.9-11.685l-.49-54.852c-.06-6.512 5.17-11.839 11.68-11.897l207.96-1.87c6.51-.059 11.84 5.173 11.89 11.685l.46 51.155c.06 6.512 5.39 11.744 11.9 11.685l37.57-.338c6.51-.058 11.84 5.173 11.9 11.685l1.16 129.165c.06 6.511-5.18 11.838-11.69 11.896l-37.56.338c-6.51.059-11.75 5.385-11.69 11.897l.49 54.295c.06 6.512-5.17 11.838-11.68 11.897l-317.32 2.854c-6.51.058-11.74 5.385-11.68 11.897l.33 37.23z" fill="#000" fill-opacity=".15"/><g opacity=".2"><mask id="path-5-inside-2_3054_350" fill="#fff"><path fill-rule="evenodd" clip-rule="evenodd" d="M809.56 379.203c-.059-6.512 5.173-11.838 11.685-11.897l24.653-.222c6.512-.058 11.839 5.173 11.897 11.685l.367 40.732c.058 6.512-5.173 11.839-11.685 11.897l-23.444.211c-6.512.059-11.743 5.385-11.685 11.897l.46 51.1c.058 6.512-5.173 11.839-11.685 11.897l-313.212 2.817c-6.512.059-11.744 5.385-11.685 11.897l1.125 125.161c.059 6.512 5.385 11.744 11.897 11.685l202.648-1.822c6.512-.059 11.839 5.172 11.897 11.684l.493 54.852c.059 6.512-5.173 11.839-11.684 11.897l-207.956 1.87c-6.512.059-11.839-5.173-11.897-11.685l-.46-51.155c-.059-6.512-5.385-11.744-11.897-11.685l-37.568.338c-6.512.058-11.839-5.173-11.897-11.685l-1.162-129.164c-.058-6.512 5.173-11.839 11.685-11.897l37.565-.338c6.512-.059 11.744-5.385 11.685-11.897l-.488-54.295c-.059-6.512 5.173-11.838 11.685-11.897l317.313-2.854c6.512-.058 11.743-5.385 11.685-11.897l-.335-37.23z"/></mask><path d="M469.212 443.081l-1.4.013 1.4-.013zm-11.197 66.192l.013 1.4-.013-1.4zm11.685-11.897l1.4-.013-1.4.013zm-60.935 24.132l1.4-.013-1.4.013zm11.685-11.897l-.013-1.4.013 1.4zm1.374 152.746l-.013-1.4.013 1.4zm-11.897-11.685l-1.4.012 1.4-.012zm61.362 23.032l1.399-.013-1.399.013zm-11.897-11.685l.012 1.4-.012-1.4zm12.357 62.84l-1.4.013 1.4-.013zm231.537-2.082l1.4-.012-1.4.012zm-12.39-66.536l.013 1.399-.013-1.399zm11.897 11.684l-1.4.013 1.4-.013zm-226.442-21.547l1.4-.012-1.4.012zm-1.125-125.161l-1.4.013 1.4-.013zm347.807-89.608l.013 1.4-.013-1.4zm35.129-12.108l1.4-.012-1.4.012zm-11.685 11.897l-.013-1.399.013 1.399zm11.318-52.629l-1.4.013 1.4-.013zm-11.884-10.285l-24.654.222-.025-2.8 24.654-.222.025 2.8zm10.851 51.03l-.367-40.732 2.8-.025.367 40.732-2.8.025zm-33.741 10.695l23.443-.21.025 2.799-23.443.211-.025-2.8zm-12.613 64.41l-.46-51.1 2.8-.025.46 51.1-2.8.025zm-323.51 13.301l313.212-2.817.026 2.8-313.213 2.817-.025-2.8zm-11.946 138.471l-1.126-125.161 2.8-.026 1.125 125.162-2.799.025zm215.957 11.249l-202.648 1.823-.025-2.8 202.648-1.822.025 2.799zm10.977 65.15l-.493-54.852 2.8-.025.493 54.852-2.8.025zm-218.253 12.354l207.956-1.87.025 2.8-207.956 1.87-.025-2.8zm-10.945-61.453l.46 51.156-2.799.025-.46-51.156 2.799-.025zm-50.877-12.734l37.568-.338.025 2.8-37.568.338-.025-2.8zm-11.646-139.462l1.162 129.164-2.8.025-1.162-129.164 2.8-.025zm47.863-10.822l-37.565.337-.026-2.799 37.566-.338.025 2.8zm12.584-67.605l.488 54.295-2.8.025-.488-54.294 2.8-.026zm327.61-13.338l-317.313 2.854-.025-2.8 317.313-2.854.025 2.8zm12.738-50.54l.335 37.231-2.8.025-.335-37.23 2.8-.026zm-12.763 47.74c5.739-.051 10.349-4.745 10.298-10.484l2.8-.025c.065 7.285-5.788 13.244-13.073 13.309l-.025-2.8zm-330.385 16.164c-.065-7.286 5.787-13.244 13.072-13.31l.025 2.8c-5.738.052-10.349 4.746-10.297 10.484l-2.8.026zm-9.809 64.779c5.739-.052 10.349-4.746 10.297-10.485l2.8-.025c.066 7.285-5.787 13.244-13.072 13.31l-.025-2.8zm-50.638 13.647c-.065-7.285 5.787-13.244 13.072-13.309l.026 2.799c-5.739.052-10.35 4.746-10.298 10.485l-2.8.025zm14.471 142.237c-7.285.065-13.244-5.788-13.309-13.073l2.8-.025c.051 5.739 4.745 10.349 10.484 10.298l.025 2.8zm48.053 9.959c-.052-5.739-4.746-10.349-10.485-10.297l-.025-2.8c7.285-.066 13.244 5.787 13.309 13.072l-2.799.025zm13.769 64.228c-7.285.066-13.244-5.787-13.309-13.072l2.799-.025c.052 5.739 4.746 10.349 10.485 10.297l.025 2.8zm221.028-15.179c.066 7.285-5.787 13.244-13.072 13.309l-.025-2.8c5.739-.051 10.349-4.745 10.297-10.484l2.8-.025zm-13.802-67.924c7.285-.066 13.244 5.787 13.309 13.072l-2.8.025c-.051-5.739-4.745-10.349-10.484-10.298l-.025-2.799zm-213.133-8.475c.052 5.738 4.746 10.349 10.485 10.297l.025 2.8c-7.285.065-13.244-5.787-13.309-13.072l2.799-.025zm9.172-135.646c-5.738.052-10.349 4.746-10.297 10.484l-2.8.026c-.066-7.286 5.787-13.244 13.072-13.31l.025 2.8zm326.285-16.126c.065 7.285-5.787 13.244-13.072 13.309l-.026-2.8c5.739-.051 10.35-4.745 10.298-10.484l2.8-.025zm9.838-61.585c-5.739.052-10.349 4.746-10.298 10.485l-2.8.025c-.065-7.285 5.788-13.244 13.073-13.31l.025 2.8zm36.516-13.52c.065 7.285-5.787 13.244-13.073 13.309l-.025-2.799c5.739-.052 10.349-4.746 10.298-10.485l2.8-.025zm-38.305-50.783c-5.739.052-10.349 4.746-10.297 10.484l-2.8.026c-.066-7.286 5.787-13.244 13.072-13.31l.025 2.8zm24.629-3.022c7.285-.065 13.244 5.787 13.309 13.073l-2.8.025c-.051-5.739-4.745-10.349-10.484-10.298l-.025-2.8z" fill="#000" fill-opacity=".15" mask="url(#path-5-inside-2_3054_350)"/></g><path opacity=".2" fill-rule="evenodd" clip-rule="evenodd" d="M1243.05 822.686c-9.14.082-16.47 7.554-16.39 16.689l.69 76.948c.08 9.135 7.55 16.473 16.69 16.391l291.72-2.623c9.14-.082 16.48-7.554 16.39-16.689l-.64-71.762c-.08-9.135 7.26-16.607 16.39-16.689l53.3-.479c9.13-.082 16.47-7.554 16.39-16.689l-1.63-181.194c-.08-9.135-7.55-16.474-16.69-16.392l-53.65.482c-9.14.082-16.61-7.256-16.69-16.391l-.69-76.429c-.08-9.135-7.55-16.474-16.69-16.392l-121.45 1.092c-9.14.083-16.61-7.256-16.69-16.391l-.26-28.266c-.08-9.135-7.55-16.474-16.69-16.392l-33.91.305c-9.14.082-16.48 7.554-16.4 16.689l.31 33.916c.08 9.135 7.55 16.474 16.69 16.392l22.86-.205c9.14-.083 16.61 7.256 16.69 16.391l.64 71.173c.08 9.135 7.55 16.474 16.69 16.392l126.02-1.133c9.13-.083 16.6 7.256 16.68 16.391l1.58 175.614c.09 9.135-7.25 16.607-16.39 16.689l-284.87 2.562z" fill="#000" fill-opacity=".15"/><path opacity=".2" fill-rule="evenodd" clip-rule="evenodd" d="M730.18 244.846c9.135-.082 16.474-7.554 16.392-16.689l-.421-46.849c-.082-9.135-7.554-16.474-16.69-16.392l-59.249.533c-9.136.082-16.474 7.554-16.392 16.689l.395 43.96c.082 9.135-7.257 16.607-16.392 16.689l-20.787.187c-9.135.082-16.474 7.554-16.392 16.689l.215 23.917c.083 9.135 7.555 16.474 16.69 16.392l20.916-.189c9.136-.082 16.474-7.554 16.392-16.689l-.189-21.027c-.082-9.135 7.257-16.607 16.392-16.689l59.12-.532z" fill="#000" fill-opacity=".1"/><path opacity=".1" d="M225.177 572.975c-.712 0-1.352-.136-1.92-.409a3.48 3.48 0 01-1.352-1.136 2.99 2.99 0 01-.54-1.648h1.704c.042.5.264.911.665 1.233.402.322.883.483 1.443.483a2.28 2.28 0 001.188-.307 2.2 2.2 0 00.818-.858c.201-.363.301-.778.301-1.244 0-.474-.102-.896-.307-1.267a2.26 2.26 0 00-.846-.875 2.395 2.395 0 00-1.228-.324c-.352 0-.706.061-1.062.182a2.47 2.47 0 00-.864.477l-1.608-.239.654-5.863h6.397v1.505h-4.937l-.369 3.256h.068c.227-.22.528-.403.903-.551a3.312 3.312 0 011.216-.222c.708 0 1.339.169 1.892.506.557.337.994.797 1.313 1.381.322.579.481 1.246.477 2 .004.754-.167 1.426-.511 2.017a3.706 3.706 0 01-1.421 1.398c-.602.337-1.293.505-2.074.505zm9.78.034c-.897-.003-1.664-.24-2.301-.71-.636-.47-1.123-1.153-1.46-2.051-.337-.898-.506-1.979-.506-3.244 0-1.262.169-2.339.506-3.233.341-.894.83-1.576 1.466-2.046.64-.469 1.405-.704 2.295-.704.89 0 1.654.236 2.29.71.636.47 1.123 1.151 1.46 2.045.341.891.512 1.966.512 3.228 0 1.269-.169 2.352-.506 3.25-.337.894-.824 1.577-1.46 2.051-.637.469-1.402.704-2.296.704zm0-1.517c.788 0 1.404-.384 1.847-1.153.447-.769.67-1.881.67-3.335 0-.966-.102-1.783-.306-2.449-.201-.671-.491-1.178-.87-1.523a1.905 1.905 0 00-1.341-.523c-.784 0-1.399.387-1.846 1.159-.447.773-.673 1.885-.676 3.336 0 .969.1 1.789.301 2.46.204.667.494 1.172.869 1.517a1.94 1.94 0 001.352.511z" fill="#000"/></g><defs><clipPath id="clip0_3054_350"><path fill="#fff" transform="scale(1 -1) rotate(.515 105035.342 -17313.06)" d="M0 0h1859.3v928.189H0z"/></clipPath></defs></svg>