<?xml version="1.0" encoding="UTF-8" standalone="no" ?>
<!DOCTYPE svg PUBLIC "-//W3C//DTD SVG 1.1//EN" "http://www.w3.org/Graphics/SVG/1.1/DTD/svg11.dtd">
<svg xmlns="http://www.w3.org/2000/svg" xmlns:xlink="http://www.w3.org/1999/xlink" version="1.1" width="1080" height="1080" viewBox="0 0 1080 1080" xml:space="preserve">
<desc>Created with Fabric.js 5.2.4</desc>
<defs>
</defs>
<rect x="0" y="0" width="100%" height="100%" fill="transparent"></rect>
<g transform="matrix(1 0 0 1 540 540)" id="5c0b8e9f-fe5c-4f23-aba4-d4fe037ea489"  >
</g>
<g transform="matrix(1 0 0 1 540 540)" id="9c3c0f03-1c37-4857-ab52-8d6d0add0a9f"  >
<rect style="stroke: none; stroke-width: 1; stroke-dasharray: none; stroke-linecap: butt; stroke-dashoffset: 0; stroke-linejoin: miter; stroke-miterlimit: 4; fill: rgb(255,255,255); fill-opacity: 0; fill-rule: nonzero; opacity: 1;" vector-effect="non-scaling-stroke"  x="-540" y="-540" rx="0" ry="0" width="1080" height="1080" />
</g>
<g transform="matrix(1 0 0 1 540 540)"  >
<path style="stroke: none; stroke-width: 1; stroke-dasharray: none; stroke-linecap: butt; stroke-dashoffset: 0; stroke-linejoin: miter; stroke-miterlimit: 4; fill: rgb(254,254,254); fill-rule: evenodd; opacity: 0;" vector-effect="non-scaling-stroke"  transform=" translate(-1864.5, -563.5)" d="M -0.5 -0.5 C 1242.83 -0.5 2486.17 -0.5 3729.5 -0.5 C 3729.5 375.5 3729.5 751.5 3729.5 1127.5 C 2486.17 1127.5 1242.83 1127.5 -0.5 1127.5 C -0.5 751.5 -0.5 375.5 -0.5 -0.5 Z" stroke-linecap="round" />
</g>
<g transform="matrix(1 0 0 1 -761 540.94)"  >
<path style="stroke: none; stroke-width: 1; stroke-dasharray: none; stroke-linecap: butt; stroke-dashoffset: 0; stroke-linejoin: miter; stroke-miterlimit: 4; fill: rgb(1,1,1); fill-rule: evenodd; opacity: 1;" vector-effect="non-scaling-stroke"  transform=" translate(-563.5, -564.44)" d="M 557.5 257.5 C 561.514 257.334 565.514 257.501 569.5 258 C 653.964 306.067 738.298 354.4 822.5 403 C 826.818 406.315 829.985 410.481 832 415.5 C 832.667 514.167 832.667 612.833 832 711.5 C 829.743 719.428 824.909 725.261 817.5 729 C 736.337 775.414 655.337 822.081 574.5 869 C 567.973 871.877 561.307 872.21 554.5 870 C 472.833 823 391.167 776 309.5 729 C 302.091 725.261 297.257 719.428 295 711.5 C 294.333 613.167 294.333 514.833 295 416.5 C 297.689 409.143 302.522 403.643 309.5 400 C 392.098 352.206 474.765 304.706 557.5 257.5 Z" stroke-linecap="round" />
</g>
<g transform="matrix(1 0 0 1 -761 540.99)"  >
<path style="stroke: none; stroke-width: 1; stroke-dasharray: none; stroke-linecap: butt; stroke-dashoffset: 0; stroke-linejoin: miter; stroke-miterlimit: 4; fill: rgb(254,254,254); fill-rule: evenodd; opacity: 1;" vector-effect="non-scaling-stroke"  transform=" translate(-563.5, -564.49)" d="M 561.5 309.5 C 563.655 309.372 565.655 309.872 567.5 311 C 639.749 352.707 711.915 394.54 784 436.5 C 784.667 521.833 784.667 607.167 784 692.5 C 710.707 735.228 637.207 777.562 563.5 819.5 C 489.793 777.562 416.293 735.228 343 692.5 C 342.333 607.167 342.333 521.833 343 436.5 C 415.978 394.266 488.811 351.933 561.5 309.5 Z" stroke-linecap="round" />
</g>
<g transform="matrix(1 0 0 1 1655.5 509)"  >
<path style="stroke: none; stroke-width: 1; stroke-dasharray: none; stroke-linecap: butt; stroke-dashoffset: 0; stroke-linejoin: miter; stroke-miterlimit: 4; fill: rgb(2,2,2); fill-rule: evenodd; opacity: 1;" vector-effect="non-scaling-stroke"  transform=" translate(-2980, -532.5)" d="M 2900.5 667.5 C 2900.5 654.5 2900.5 641.5 2900.5 628.5 C 2919.34 628.83 2938.01 628.497 2956.5 627.5 C 2956.5 564.167 2956.5 500.833 2956.5 437.5 C 2937.5 437.5 2918.5 437.5 2899.5 437.5 C 2899.5 424.167 2899.5 410.833 2899.5 397.5 C 2935.17 397.5 2970.83 397.5 3006.5 397.5 C 3006.5 474.5 3006.5 551.5 3006.5 628.5 C 3024.5 628.5 3042.5 628.5 3060.5 628.5 C 3060.5 641.5 3060.5 654.5 3060.5 667.5 C 3007.17 667.5 2953.83 667.5 2900.5 667.5 Z" stroke-linecap="round" />
</g>
<g transform="matrix(1 0 0 1 1448.56 404.82)"  >
<path style="stroke: none; stroke-width: 1; stroke-dasharray: none; stroke-linecap: butt; stroke-dashoffset: 0; stroke-linejoin: miter; stroke-miterlimit: 4; fill: rgb(2,2,2); fill-rule: evenodd; opacity: 1;" vector-effect="non-scaling-stroke"  transform=" translate(-2773.06, -428.32)" d="M 2767.5 402.5 C 2782.07 400.537 2792.91 405.87 2800 418.5 C 2803.71 445.455 2791.88 457.288 2764.5 454 C 2747.17 446.839 2741.67 434.339 2748 416.5 C 2752.76 409.222 2759.26 404.556 2767.5 402.5 Z" stroke-linecap="round" />
</g>
<g transform="matrix(1 0 0 1 -224.5 516)"  >
<path style="stroke: none; stroke-width: 1; stroke-dasharray: none; stroke-linecap: butt; stroke-dashoffset: 0; stroke-linejoin: miter; stroke-miterlimit: 4; fill: rgb(0,0,0); fill-rule: evenodd; opacity: 1;" vector-effect="non-scaling-stroke"  transform=" translate(-1100, -539.5)" d="M 1135.5 429.5 C 1136.49 424.025 1136.82 418.358 1136.5 412.5 C 1152.5 412.5 1168.5 412.5 1184.5 412.5 C 1184.5 497.5 1184.5 582.5 1184.5 667.5 C 1168.17 667.5 1151.83 667.5 1135.5 667.5 C 1112.78 613.724 1089.78 560.057 1066.5 506.5 C 1066.54 505.244 1066.04 504.244 1065 503.5 C 1064.5 558.166 1064.33 612.832 1064.5 667.5 C 1048.17 667.5 1031.83 667.5 1015.5 667.5 C 1015.5 582.167 1015.5 496.833 1015.5 411.5 C 1032.17 411.5 1048.83 411.5 1065.5 411.5 C 1088.35 466.22 1111.52 520.886 1135 575.5 C 1135.5 526.834 1135.67 478.168 1135.5 429.5 Z" stroke-linecap="round" />
</g>
<g transform="matrix(1 0 0 1 -163.94 516)"  >
<path style="stroke: none; stroke-width: 1; stroke-dasharray: none; stroke-linecap: butt; stroke-dashoffset: 0; stroke-linejoin: miter; stroke-miterlimit: 4; fill: rgb(63,63,63); fill-rule: evenodd; opacity: 1;" vector-effect="non-scaling-stroke"  transform=" translate(-1160.56, -539.5)" d="M 1184.5 667.5 C 1184.5 582.5 1184.5 497.5 1184.5 412.5 C 1168.5 412.5 1152.5 412.5 1136.5 412.5 C 1136.82 418.358 1136.49 424.025 1135.5 429.5 C 1135.5 423.5 1135.5 417.5 1135.5 411.5 C 1152.17 411.5 1168.83 411.5 1185.5 411.5 C 1185.83 497.002 1185.5 582.335 1184.5 667.5 Z" stroke-linecap="round" />
</g>
<g transform="matrix(1 0 0 1 1024.25 527.56)"  >
<path style="stroke: none; stroke-width: 1; stroke-dasharray: none; stroke-linecap: butt; stroke-dashoffset: 0; stroke-linejoin: miter; stroke-miterlimit: 4; fill: rgb(1,1,1); fill-rule: evenodd; opacity: 1;" vector-effect="non-scaling-stroke"  transform=" translate(-2348.75, -551.06)" d="M 2306.5 430.5 C 2322.83 430.5 2339.17 430.5 2355.5 430.5 C 2355.5 446.167 2355.5 461.833 2355.5 477.5 C 2379.17 477.5 2402.83 477.5 2426.5 477.5 C 2426.5 489.5 2426.5 501.5 2426.5 513.5 C 2402.83 513.5 2379.17 513.5 2355.5 513.5 C 2355.33 544.168 2355.5 574.835 2356 605.5 C 2358.08 619.916 2366.25 628.416 2380.5 631 C 2387.17 631.667 2393.83 631.667 2400.5 631 C 2410.48 629.265 2420.48 627.765 2430.5 626.5 C 2432.19 637.472 2433.35 648.472 2434 659.5 C 2421.61 665.649 2408.44 669.149 2394.5 670 C 2377.11 673.101 2360.11 671.768 2343.5 666 C 2320.49 654.853 2308.32 636.353 2307 610.5 C 2306.5 578.168 2306.33 545.835 2306.5 513.5 C 2292.17 513.5 2277.83 513.5 2263.5 513.5 C 2263.5 501.5 2263.5 489.5 2263.5 477.5 C 2277.83 477.5 2292.17 477.5 2306.5 477.5 C 2306.5 461.833 2306.5 446.167 2306.5 430.5 Z" stroke-linecap="round" />
</g>
<g transform="matrix(1 0 0 1 -761.3 540.75)"  >
<path style="stroke: none; stroke-width: 1; stroke-dasharray: none; stroke-linecap: butt; stroke-dashoffset: 0; stroke-linejoin: miter; stroke-miterlimit: 4; fill: rgb(2,2,2); fill-rule: evenodd; opacity: 1;" vector-effect="non-scaling-stroke"  transform=" translate(-563.2, -564.25)" d="M 600.5 456.5 C 623.608 457.434 632.441 469.101 627 491.5 C 599 547.5 571 603.5 543 659.5 C 533.615 672.537 521.782 675.37 507.5 668 C 498.01 659.534 495.51 649.368 500 637.5 C 528 581.5 556 525.5 584 469.5 C 587.939 463.048 593.439 458.714 600.5 456.5 Z" stroke-linecap="round" />
</g>
<g transform="matrix(1 0 0 1 -14.28 548.95)"  >
<path style="stroke: none; stroke-width: 1; stroke-dasharray: none; stroke-linecap: butt; stroke-dashoffset: 0; stroke-linejoin: miter; stroke-miterlimit: 4; fill: rgb(2,2,2); fill-rule: evenodd; opacity: 1;" vector-effect="non-scaling-stroke"  transform=" translate(-1310.22, -572.45)" d="M 1296.5 474.5 C 1320.5 471.134 1342.84 475.634 1363.5 488 C 1384.53 503.875 1396.36 525.042 1399 551.5 C 1399.5 563.829 1399.67 576.162 1399.5 588.5 C 1356.5 588.5 1313.5 588.5 1270.5 588.5 C 1276.32 616.488 1293.48 630.822 1322 631.5 C 1341.7 631.775 1358.2 624.775 1371.5 610.5 C 1379.84 618.84 1387.84 627.507 1395.5 636.5 C 1385.74 649.054 1373.41 658.22 1358.5 664 C 1319.21 678.007 1283.21 672.34 1250.5 647 C 1233.97 631.77 1224.47 612.936 1222 590.5 C 1218.32 562.571 1223.65 536.571 1238 512.5 C 1252.69 492.405 1272.19 479.738 1296.5 474.5 Z" stroke-linecap="round" />
</g>
<g transform="matrix(1 0 0 1 195.61 583.63)"  >
<path style="stroke: none; stroke-width: 1; stroke-dasharray: none; stroke-linecap: butt; stroke-dashoffset: 0; stroke-linejoin: miter; stroke-miterlimit: 4; fill: rgb(0,0,0); fill-rule: evenodd; opacity: 1;" vector-effect="non-scaling-stroke"  transform=" translate(-1520.11, -607.12)" d="M 1483.5 740.5 C 1467.5 740.5 1451.5 740.5 1435.5 740.5 C 1435.5 652.833 1435.5 565.167 1435.5 477.5 C 1450.5 477.5 1465.5 477.5 1480.5 477.5 C 1480.91 483.502 1481.41 489.502 1482 495.5 C 1498.61 477.518 1519.11 470.684 1543.5 475 C 1571.01 480.507 1589.18 496.674 1598 523.5 C 1603.32 539.067 1605.48 555.067 1604.5 571.5 C 1606.02 599.421 1598.86 624.755 1583 647.5 C 1559.78 671.29 1532.61 677.124 1501.5 665 C 1495.1 661.265 1489.26 656.765 1484 651.5 C 1483.5 681.165 1483.33 710.831 1483.5 740.5 Z" stroke-linecap="round" />
</g>
<g transform="matrix(1 0 0 1 416.5 547.47)"  >
<path style="stroke: none; stroke-width: 1; stroke-dasharray: none; stroke-linecap: butt; stroke-dashoffset: 0; stroke-linejoin: miter; stroke-miterlimit: 4; fill: rgb(2,2,2); fill-rule: evenodd; opacity: 1;" vector-effect="non-scaling-stroke"  transform=" translate(-1741, -570.97)" d="M 1766.5 474.5 C 1776.51 474.334 1786.51 474.5 1796.5 475 C 1802.62 476.184 1808.62 477.684 1814.5 479.5 C 1811.91 495.457 1809.58 511.457 1807.5 527.5 C 1789.35 523.205 1771.02 522.038 1752.5 524 C 1735.64 527.187 1723.81 536.687 1717 552.5 C 1716.5 590.832 1716.33 629.165 1716.5 667.5 C 1700.17 667.5 1683.83 667.5 1667.5 667.5 C 1667.5 604.167 1667.5 540.833 1667.5 477.5 C 1682.83 477.5 1698.17 477.5 1713.5 477.5 C 1713.91 487.892 1714.74 498.225 1716 508.5 C 1728.46 490.524 1745.29 479.191 1766.5 474.5 Z" stroke-linecap="round" />
</g>
<g transform="matrix(1 0 0 1 608.91 548.75)"  >
<path style="stroke: none; stroke-width: 1; stroke-dasharray: none; stroke-linecap: butt; stroke-dashoffset: 0; stroke-linejoin: miter; stroke-miterlimit: 4; fill: rgb(1,1,1); fill-rule: evenodd; opacity: 1;" vector-effect="non-scaling-stroke"  transform=" translate(-1933.41, -572.25)" d="M 1915.5 474.5 C 1949.67 469.721 1978.5 479.721 2002 504.5 C 2019.84 529.684 2026.51 557.684 2022 588.5 C 2011.95 650.135 1975.78 677.302 1913.5 670 C 1877.26 660.758 1854.76 637.924 1846 601.5 C 1841.79 578.231 1842.79 555.231 1849 532.5 C 1860.51 500.812 1882.68 481.479 1915.5 474.5 Z" stroke-linecap="round" />
</g>
<g transform="matrix(1 0 0 1 816.98 549.15)"  >
<path style="stroke: none; stroke-width: 1; stroke-dasharray: none; stroke-linecap: butt; stroke-dashoffset: 0; stroke-linejoin: miter; stroke-miterlimit: 4; fill: rgb(2,2,2); fill-rule: evenodd; opacity: 1;" vector-effect="non-scaling-stroke"  transform=" translate(-2141.48, -572.64)" d="M 2226.5 526.5 C 2226.5 529.167 2226.5 531.833 2226.5 534.5 C 2210.5 534.5 2194.5 534.5 2178.5 534.5 C 2177.23 521.061 2169.9 513.228 2156.5 511 C 2146.49 509.031 2136.49 509.031 2126.5 511 C 2110.92 515.012 2105.42 524.512 2110 539.5 C 2113.89 543.528 2118.39 546.694 2123.5 549 C 2136.34 552.418 2149.34 555.085 2162.5 557 C 2180.82 560.32 2197.48 567.32 2212.5 578 C 2232.54 599.429 2233.7 621.929 2216 645.5 C 2198.21 661.996 2177.04 670.496 2152.5 671 C 2125.86 673.924 2101.53 667.924 2079.5 653 C 2064.26 641.683 2055.92 626.516 2054.5 607.5 C 2070.17 607.5 2085.83 607.5 2101.5 607.5 C 2102.76 620.155 2109.42 628.655 2121.5 633 C 2137.3 637.881 2152.96 637.548 2168.5 632 C 2181.88 624.566 2183.88 614.899 2174.5 603 C 2170.07 600.449 2165.4 598.449 2160.5 597 C 2140.9 593.021 2121.56 588.021 2102.5 582 C 2088.76 576.89 2077.26 568.723 2068 557.5 C 2054.46 528.816 2060.96 505.649 2087.5 488 C 2110.19 475.346 2134.53 471.013 2160.5 475 C 2178.22 477.236 2194.22 483.569 2208.5 494 C 2218.17 502.828 2224.17 513.662 2226.5 526.5 Z" stroke-linecap="round" />
</g>
<g transform="matrix(1 0 0 1 1232.86 549.22)"  >
<path style="stroke: none; stroke-width: 1; stroke-dasharray: none; stroke-linecap: butt; stroke-dashoffset: 0; stroke-linejoin: miter; stroke-miterlimit: 4; fill: rgb(1,1,1); fill-rule: evenodd; opacity: 1;" vector-effect="non-scaling-stroke"  transform=" translate(-2557.36, -572.72)" d="M 2539.5 474.5 C 2599.73 469.334 2635.23 496.334 2646 555.5 C 2649.97 586.003 2643.64 614.003 2627 639.5 C 2611.95 657.949 2592.45 668.449 2568.5 671 C 2522.32 675.177 2490.49 656.01 2473 613.5 C 2466.51 588.664 2465.84 563.664 2471 538.5 C 2481.54 503.783 2504.38 482.45 2539.5 474.5 Z" stroke-linecap="round" />
</g>
<g transform="matrix(1 0 0 1 2062.74 549.06)"  >
<path style="stroke: none; stroke-width: 1; stroke-dasharray: none; stroke-linecap: butt; stroke-dashoffset: 0; stroke-linejoin: miter; stroke-miterlimit: 4; fill: rgb(1,1,1); fill-rule: evenodd; opacity: 1;" vector-effect="non-scaling-stroke"  transform=" translate(-3387.24, -572.56)" d="M 3354.5 529.5 C 3353.57 530.568 3353.23 531.901 3353.5 533.5 C 3337.5 533.5 3321.5 533.5 3305.5 533.5 C 3306.65 512.507 3316.32 496.674 3334.5 486 C 3355.85 474.948 3378.52 471.281 3402.5 475 C 3421.28 477.17 3437.45 484.67 3451 497.5 C 3459.15 506.66 3464.15 517.327 3466 529.5 C 3466.33 565.833 3466.67 602.167 3467 638.5 C 3468.58 648.322 3470.75 657.988 3473.5 667.5 C 3457.16 667.667 3440.83 667.5 3424.5 667 C 3421.87 661.767 3420.03 656.267 3419 650.5 C 3395.03 671.693 3367.86 676.859 3337.5 666 C 3309.07 653.312 3297.24 631.479 3302 600.5 C 3307.44 580.384 3319.94 566.551 3339.5 559 C 3347.4 556.59 3355.4 554.59 3363.5 553 C 3381.47 551.634 3399.47 551.134 3417.5 551.5 C 3419.94 538.693 3416.94 527.526 3408.5 518 C 3397.8 511.105 3386.13 508.772 3373.5 511 C 3366.04 512.482 3360.2 516.316 3356 522.5 C 3355.02 524.74 3354.52 527.073 3354.5 529.5 Z" stroke-linecap="round" />
</g>
<g transform="matrix(1 0 0 1 1448 549)"  >
<path style="stroke: none; stroke-width: 1; stroke-dasharray: none; stroke-linecap: butt; stroke-dashoffset: 0; stroke-linejoin: miter; stroke-miterlimit: 4; fill: rgb(1,1,1); fill-rule: evenodd; opacity: 1;" vector-effect="non-scaling-stroke"  transform=" translate(-2772.5, -572.5)" d="M 2695.5 477.5 C 2729.83 477.5 2764.17 477.5 2798.5 477.5 C 2798.5 527.833 2798.5 578.167 2798.5 628.5 C 2815.5 628.5 2832.5 628.5 2849.5 628.5 C 2849.5 641.5 2849.5 654.5 2849.5 667.5 C 2798.17 667.5 2746.83 667.5 2695.5 667.5 C 2695.5 654.5 2695.5 641.5 2695.5 628.5 C 2713.34 628.83 2731.01 628.497 2748.5 627.5 C 2748.5 590.833 2748.5 554.167 2748.5 517.5 C 2731.01 516.503 2713.34 516.17 2695.5 516.5 C 2695.5 503.5 2695.5 490.5 2695.5 477.5 Z" stroke-linecap="round" />
</g>
<g transform="matrix(1 0 0 1 1861 587.42)"  >
<path style="stroke: none; stroke-width: 1; stroke-dasharray: none; stroke-linecap: butt; stroke-dashoffset: 0; stroke-linejoin: miter; stroke-miterlimit: 4; fill: rgb(1,1,1); fill-rule: evenodd; opacity: 1;" vector-effect="non-scaling-stroke"  transform=" translate(-3185.5, -610.92)" d="M 3109.5 705.5 C 3113.06 704.577 3116.73 704.244 3120.5 704.5 C 3129.49 705.087 3136.66 701.754 3142 694.5 C 3149.83 683.483 3156.66 671.816 3162.5 659.5 C 3136.11 599.049 3109.44 538.716 3082.5 478.5 C 3100.17 477.167 3117.83 477.167 3135.5 478.5 C 3149.28 512.388 3162.78 546.388 3176 580.5 C 3178.57 589.3 3181.41 597.966 3184.5 606.5 C 3201.36 563.911 3218.03 521.244 3234.5 478.5 C 3252.49 477.334 3270.49 477.167 3288.5 478 C 3256.07 551.794 3223.57 625.628 3191 699.5 C 3173.58 736.961 3144.74 750.961 3104.5 741.5 C 3105.73 729.434 3107.4 717.434 3109.5 705.5 Z" stroke-linecap="round" />
</g>
<g transform="matrix(1 0 0 1 -904.99 540.93)"  >
<path style="stroke: none; stroke-width: 1; stroke-dasharray: none; stroke-linecap: butt; stroke-dashoffset: 0; stroke-linejoin: miter; stroke-miterlimit: 4; fill: rgb(1,1,1); fill-rule: evenodd; opacity: 1;" vector-effect="non-scaling-stroke"  transform=" translate(-419.51, -564.43)" d="M 442.5 480.5 C 466.843 479.662 476.343 490.995 471 514.5 C 470 516.167 469 517.833 468 519.5 C 452.986 534.347 438.153 549.347 423.5 564.5 C 438.153 579.653 452.986 594.653 468 609.5 C 475.272 619.804 475.272 630.138 468 640.5 C 457.671 649.705 446.505 650.871 434.5 644 C 413 622.5 391.5 601 370 579.5 C 364.088 569.445 364.088 559.445 370 549.5 C 391.5 528 413 506.5 434.5 485 C 437.191 483.395 439.858 481.895 442.5 480.5 Z" stroke-linecap="round" />
</g>
<g transform="matrix(1 0 0 1 -616.52 540.92)"  >
<path style="stroke: none; stroke-width: 1; stroke-dasharray: none; stroke-linecap: butt; stroke-dashoffset: 0; stroke-linejoin: miter; stroke-miterlimit: 4; fill: rgb(2,2,2); fill-rule: evenodd; opacity: 1;" vector-effect="non-scaling-stroke"  transform=" translate(-707.98, -564.42)" d="M 670.5 480.5 C 678.426 479.498 685.759 480.998 692.5 485 C 714 506.5 735.5 528 757 549.5 C 764.263 559.517 764.263 569.517 757 579.5 C 735.5 601 714 622.5 692.5 644 C 674.764 653.207 661.93 648.707 654 630.5 C 652.489 622.194 654.489 614.86 660 608.5 C 674.681 593.986 689.181 579.319 703.5 564.5 C 688.847 549.347 674.014 534.347 659 519.5 C 649.614 502.497 653.448 489.497 670.5 480.5 Z" stroke-linecap="round" />
</g>
<g transform="matrix(1 0 0 1 -259.03 562)"  >
<path style="stroke: none; stroke-width: 1; stroke-dasharray: none; stroke-linecap: butt; stroke-dashoffset: 0; stroke-linejoin: miter; stroke-miterlimit: 4; fill: rgb(158,158,158); fill-rule: evenodd; opacity: 1;" vector-effect="non-scaling-stroke"  transform=" translate(-1065.47, -585.5)" d="M 1066.5 506.5 C 1065.83 560.167 1065.17 613.833 1064.5 667.5 C 1064.33 612.832 1064.5 558.166 1065 503.5 C 1066.04 504.244 1066.54 505.244 1066.5 506.5 Z" stroke-linecap="round" />
</g>
<g transform="matrix(1 0 0 1 -12.97 510.27)"  >
<path style="stroke: none; stroke-width: 1; stroke-dasharray: none; stroke-linecap: butt; stroke-dashoffset: 0; stroke-linejoin: miter; stroke-miterlimit: 4; fill: rgb(253,253,253); fill-rule: evenodd; opacity: 1;" vector-effect="non-scaling-stroke"  transform=" translate(-1311.53, -533.77)" d="M 1304.5 513.5 C 1327.58 510.772 1343.08 520.105 1351 541.5 C 1351.5 545.821 1351.67 550.154 1351.5 554.5 C 1324.83 554.5 1298.17 554.5 1271.5 554.5 C 1274.23 533.994 1285.23 520.327 1304.5 513.5 Z" stroke-linecap="round" />
</g>
<g transform="matrix(1 0 0 1 608.54 549.23)"  >
<path style="stroke: none; stroke-width: 1; stroke-dasharray: none; stroke-linecap: butt; stroke-dashoffset: 0; stroke-linejoin: miter; stroke-miterlimit: 4; fill: rgb(253,253,253); fill-rule: evenodd; opacity: 1;" vector-effect="non-scaling-stroke"  transform=" translate(-1933.04, -572.73)" d="M 1924.5 513.5 C 1946.02 511.003 1960.86 519.67 1969 539.5 C 1970.75 544.735 1972.08 550.068 1973 555.5 C 1973.67 566.5 1973.67 577.5 1973 588.5 C 1971.85 601.632 1967.02 613.132 1958.5 623 C 1943.52 634.409 1927.85 635.409 1911.5 626 C 1901.35 617.539 1895.52 606.706 1894 593.5 C 1892.52 581.201 1892.19 568.868 1893 556.5 C 1894.33 535.07 1904.83 520.736 1924.5 513.5 Z" stroke-linecap="round" />
</g>
<g transform="matrix(1 0 0 1 1232.51 549.04)"  >
<path style="stroke: none; stroke-width: 1; stroke-dasharray: none; stroke-linecap: butt; stroke-dashoffset: 0; stroke-linejoin: miter; stroke-miterlimit: 4; fill: rgb(253,253,253); fill-rule: evenodd; opacity: 1;" vector-effect="non-scaling-stroke"  transform=" translate(-2557.01, -572.55)" d="M 2548.5 513.5 C 2569.01 510.996 2583.51 518.996 2592 537.5 C 2598.17 557.524 2599.17 577.857 2595 598.5 C 2588.55 624.798 2572.05 635.632 2545.5 631 C 2534.09 627.259 2526.26 619.759 2522 608.5 C 2519.93 602.947 2518.26 597.28 2517 591.5 C 2516.33 579.5 2516.33 567.5 2517 555.5 C 2518.49 542.011 2523.99 530.511 2533.5 521 C 2538.15 517.628 2543.15 515.128 2548.5 513.5 Z" stroke-linecap="round" />
</g>
<g transform="matrix(1 0 0 1 195.45 549.36)"  >
<path style="stroke: none; stroke-width: 1; stroke-dasharray: none; stroke-linecap: butt; stroke-dashoffset: 0; stroke-linejoin: miter; stroke-miterlimit: 4; fill: rgb(252,252,252); fill-rule: evenodd; opacity: 1;" vector-effect="non-scaling-stroke"  transform=" translate(-1519.94, -572.86)" d="M 1509.5 513.5 C 1536.38 512.531 1551.55 525.531 1555 552.5 C 1557.75 571.136 1556.41 589.47 1551 607.5 C 1541.56 628.998 1525.39 636.498 1502.5 630 C 1494.44 626.611 1488.28 621.111 1484 613.5 C 1483.33 586.167 1483.33 558.833 1484 531.5 C 1489.91 521.75 1498.41 515.75 1509.5 513.5 Z" stroke-linecap="round" />
</g>
<g transform="matrix(1 0 0 1 1396.94 474)"  >
<path style="stroke: none; stroke-width: 1; stroke-dasharray: none; stroke-linecap: butt; stroke-dashoffset: 0; stroke-linejoin: miter; stroke-miterlimit: 4; fill: rgb(40,40,40); fill-rule: evenodd; opacity: 1;" vector-effect="non-scaling-stroke"  transform=" translate(-2721.44, -497.5)" d="M 2695.5 477.5 C 2695.5 490.5 2695.5 503.5 2695.5 516.5 C 2713.34 516.17 2731.01 516.503 2748.5 517.5 C 2730.5 517.5 2712.5 517.5 2694.5 517.5 C 2694.17 503.99 2694.5 490.656 2695.5 477.5 Z" stroke-linecap="round" />
</g>
<g transform="matrix(1 0 0 1 2005.5 508.56)"  >
<path style="stroke: none; stroke-width: 1; stroke-dasharray: none; stroke-linecap: butt; stroke-dashoffset: 0; stroke-linejoin: miter; stroke-miterlimit: 4; fill: rgb(97,97,97); fill-rule: evenodd; opacity: 1;" vector-effect="non-scaling-stroke"  transform=" translate(-3330, -532.06)" d="M 3354.5 529.5 C 3354.5 531.167 3354.5 532.833 3354.5 534.5 C 3337.99 534.83 3321.66 534.496 3305.5 533.5 C 3321.5 533.5 3337.5 533.5 3353.5 533.5 C 3353.23 531.901 3353.57 530.568 3354.5 529.5 Z" stroke-linecap="round" />
</g>
<g transform="matrix(1 0 0 1 878.56 507.56)"  >
<path style="stroke: none; stroke-width: 1; stroke-dasharray: none; stroke-linecap: butt; stroke-dashoffset: 0; stroke-linejoin: miter; stroke-miterlimit: 4; fill: rgb(63,63,63); fill-rule: evenodd; opacity: 1;" vector-effect="non-scaling-stroke"  transform=" translate(-2203.06, -531.06)" d="M 2226.5 526.5 C 2227.48 529.287 2227.81 532.287 2227.5 535.5 C 2210.99 535.83 2194.66 535.496 2178.5 534.5 C 2194.5 534.5 2210.5 534.5 2226.5 534.5 C 2226.5 531.833 2226.5 529.167 2226.5 526.5 Z" stroke-linecap="round" />
</g>
<g transform="matrix(1 0 0 1 2060.5 583.61)"  >
<path style="stroke: none; stroke-width: 1; stroke-dasharray: none; stroke-linecap: butt; stroke-dashoffset: 0; stroke-linejoin: miter; stroke-miterlimit: 4; fill: rgb(252,252,252); fill-rule: evenodd; opacity: 1;" vector-effect="non-scaling-stroke"  transform=" translate(-3384.99, -607.11)" d="M 3381.5 580.5 C 3393.5 580.5 3405.5 580.5 3417.5 580.5 C 3425.95 609.476 3415.62 626.976 3386.5 633 C 3376.18 634.829 3366.51 633.163 3357.5 628 C 3346.39 614.542 3347.05 601.542 3359.5 589 C 3366.43 584.86 3373.77 582.026 3381.5 580.5 Z" stroke-linecap="round" />
</g>
<g transform="matrix(1 0 0 1 1396.94 624)"  >
<path style="stroke: none; stroke-width: 1; stroke-dasharray: none; stroke-linecap: butt; stroke-dashoffset: 0; stroke-linejoin: miter; stroke-miterlimit: 4; fill: rgb(86,86,86); fill-rule: evenodd; opacity: 1;" vector-effect="non-scaling-stroke"  transform=" translate(-2721.44, -647.5)" d="M 2748.5 627.5 C 2731.01 628.497 2713.34 628.83 2695.5 628.5 C 2695.5 641.5 2695.5 654.5 2695.5 667.5 C 2694.5 654.344 2694.17 641.01 2694.5 627.5 C 2712.5 627.5 2730.5 627.5 2748.5 627.5 Z" stroke-linecap="round" />
</g>
<g transform="matrix(1 0 0 1 1603.44 624)"  >
<path style="stroke: none; stroke-width: 1; stroke-dasharray: none; stroke-linecap: butt; stroke-dashoffset: 0; stroke-linejoin: miter; stroke-miterlimit: 4; fill: rgb(107,107,107); fill-rule: evenodd; opacity: 1;" vector-effect="non-scaling-stroke"  transform=" translate(-2927.94, -647.5)" d="M 2956.5 627.5 C 2938.01 628.497 2919.34 628.83 2900.5 628.5 C 2900.5 641.5 2900.5 654.5 2900.5 667.5 C 2899.5 654.344 2899.17 641.01 2899.5 627.5 C 2918.5 627.5 2937.5 627.5 2956.5 627.5 Z" stroke-linecap="round" />
</g>
<g transform="matrix(1 0 0 1 1790.5 681)"  >
<path style="stroke: none; stroke-width: 1; stroke-dasharray: none; stroke-linecap: butt; stroke-dashoffset: 0; stroke-linejoin: miter; stroke-miterlimit: 4; fill: rgb(82,82,82); fill-rule: evenodd; opacity: 1;" vector-effect="non-scaling-stroke"  transform=" translate(-3115, -704.5)" d="M 3120.5 704.5 C 3116.73 704.244 3113.06 704.577 3109.5 705.5 C 3110.87 704.213 3112.7 703.547 3115 703.5 C 3117.03 703.506 3118.87 703.839 3120.5 704.5 Z" stroke-linecap="round" />
</g>
<g transform="matrix(1 0 0 1 134.44 586.06)"  >
<path style="stroke: none; stroke-width: 1; stroke-dasharray: none; stroke-linecap: butt; stroke-dashoffset: 0; stroke-linejoin: miter; stroke-miterlimit: 4; fill: rgb(145,145,145); fill-rule: evenodd; opacity: 1;" vector-effect="non-scaling-stroke"  transform=" translate(-1458.94, -609.56)" d="M 1435.5 477.5 C 1435.5 565.167 1435.5 652.833 1435.5 740.5 C 1451.5 740.5 1467.5 740.5 1483.5 740.5 C 1467.34 741.496 1451.01 741.83 1434.5 741.5 C 1434.17 653.332 1434.5 565.332 1435.5 477.5 Z" stroke-linecap="round" />
</g>
</svg>